<?xml version="1.0" encoding="utf-8"?>
<!-- Generator: Adobe Illustrator 27.4.0, SVG Export Plug-In . SVG Version: 6.00 Build 0)  -->
<svg version="1.1" id="Artwork" xmlns="http://www.w3.org/2000/svg" xmlns:xlink="http://www.w3.org/1999/xlink" x="0px" y="0px"
	 width="113.791px" height="26.164px" viewBox="0 0 113.791 26.164" style="enable-background:new 0 0 113.791 26.164;"
	 xml:space="preserve">
<style type="text/css">
	.st0{fill:url(#SVGID_1_);}
	.st1{fill:#FFFFFF;}
</style>
<g>
	<g>
		<g>
			<linearGradient id="SVGID_1_" gradientUnits="userSpaceOnUse" x1="12.582" y1="0" x2="12.582" y2="25.164">
				<stop  offset="0" style="stop-color:#D56EFC"/>
				<stop  offset="1" style="stop-color:#832BC1"/>
			</linearGradient>
			<path class="st0" d="M25.164,7.872c0-0.301,0-0.601-0.002-0.902c-0.002-0.253-0.004-0.506-0.011-0.759
				c-0.015-0.551-0.047-1.107-0.145-1.653c-0.099-0.554-0.262-1.069-0.518-1.572c-0.252-0.494-0.58-0.946-0.972-1.338
				c-0.392-0.392-0.844-0.721-1.338-0.972c-0.503-0.256-1.018-0.418-1.571-0.518c-0.545-0.098-1.102-0.131-1.653-0.145
				c-0.253-0.007-0.506-0.01-0.759-0.011C17.893,0,17.593,0,17.292,0H7.872C7.571,0,7.271,0,6.97,0.002
				C6.717,0.003,6.464,0.006,6.211,0.013C5.659,0.028,5.103,0.06,4.557,0.158C4.004,0.258,3.489,0.42,2.986,0.676
				C2.492,0.928,2.04,1.256,1.648,1.648C1.256,2.04,0.928,2.492,0.676,2.986C0.42,3.489,0.258,4.004,0.158,4.558
				C0.06,5.103,0.028,5.659,0.013,6.211C0.006,6.464,0.003,6.717,0.002,6.97C0,7.271,0,7.571,0,7.872v9.421
				c0,0.301,0,0.601,0.002,0.902c0.002,0.253,0.004,0.506,0.011,0.759c0.015,0.551,0.047,1.107,0.145,1.653
				c0.099,0.554,0.262,1.069,0.518,1.572c0.252,0.494,0.58,0.946,0.972,1.338c0.392,0.392,0.844,0.721,1.338,0.972
				c0.503,0.256,1.018,0.418,1.571,0.518c0.545,0.098,1.102,0.131,1.653,0.145c0.253,0.007,0.506,0.01,0.759,0.011
				c0.301,0.002,0.601,0.002,0.902,0.002h9.421c0.301,0,0.601,0,0.902-0.002c0.253-0.002,0.506-0.004,0.759-0.011
				c0.551-0.015,1.108-0.047,1.653-0.145c0.553-0.099,1.068-0.262,1.571-0.518c0.494-0.252,0.946-0.58,1.338-0.972
				c0.392-0.392,0.721-0.844,0.972-1.338c0.256-0.503,0.418-1.018,0.518-1.572c0.098-0.545,0.13-1.101,0.145-1.653
				c0.007-0.253,0.01-0.506,0.011-0.759c0.002-0.301,0.002-0.601,0.002-0.902V7.872z"/>
		</g>
		<path class="st1" d="M12.574,9.151c1.04,0,1.883,0.843,1.883,1.882c0,1.04-0.843,1.882-1.883,1.882
			c-1.04,0-1.883-0.843-1.883-1.882C10.691,9.994,11.534,9.151,12.574,9.151z M17.994,11.694c0,1.858-0.94,3.5-2.37,4.476
			c-0.073,0.05-0.172-0.007-0.166-0.095c0.02-0.33,0.026-0.623,0.009-0.924c-0.006-0.099,0.033-0.195,0.106-0.263
			c0.853-0.8,1.386-1.936,1.386-3.195c0-2.475-2.062-4.477-4.558-4.38c-2.297,0.089-4.15,1.965-4.21,4.263
			c-0.034,1.305,0.505,2.488,1.384,3.313c0.072,0.068,0.111,0.164,0.105,0.263c-0.017,0.301-0.011,0.593,0.009,0.924
			c0.005,0.088-0.093,0.144-0.166,0.095c-1.448-0.989-2.394-2.66-2.37-4.547C7.191,8.754,9.492,6.39,12.36,6.279
			C15.446,6.16,17.994,8.635,17.994,11.694z M12.551,3.605c4.472-0.013,8.114,3.621,8.114,8.088c0,3.522-2.264,6.525-5.413,7.632
			c-0.077,0.027-0.156-0.037-0.143-0.118c0.042-0.277,0.081-0.555,0.117-0.828c0.013-0.097,0.074-0.18,0.163-0.219
			c2.494-1.089,4.241-3.578,4.241-6.467c0-3.909-3.197-7.085-7.114-7.053c-3.832,0.031-6.96,3.154-6.997,6.984
			c-0.028,2.919,1.727,5.438,4.24,6.536C9.848,18.2,9.91,18.283,9.923,18.38c0.036,0.274,0.075,0.552,0.117,0.829
			c0.012,0.081-0.066,0.145-0.143,0.118c-3.18-1.118-5.457-4.168-5.413-7.735C4.538,7.189,8.147,3.618,12.551,3.605z M12.574,13.677
			c0.716,0,1.322,0.233,1.668,0.598c0.18,0.19,0.275,0.385,0.305,0.662c0.058,0.537,0.025,1-0.038,1.74
			c-0.06,0.705-0.174,1.645-0.323,2.602c-0.106,0.681-0.192,1.049-0.27,1.312c-0.127,0.427-0.601,0.8-1.343,0.8
			c-0.742,0-1.216-0.373-1.343-0.8c-0.078-0.263-0.164-0.631-0.27-1.312c-0.149-0.957-0.263-1.897-0.323-2.602
			c-0.063-0.74-0.096-1.203-0.038-1.74c0.03-0.277,0.125-0.472,0.305-0.662C11.252,13.91,11.858,13.677,12.574,13.677z"/>
	</g>
	<g>
		<g>
			<g>
				<g>
					<path d="M49.132,11.345c2.413,0,4.093,1.663,4.093,4.084c0,2.43-1.715,4.102-4.153,4.102h-2.671v4.248h-1.93V11.345H49.132z
						 M46.401,17.911h2.215c1.68,0,2.637-0.905,2.637-2.473c0-1.568-0.956-2.464-2.628-2.464h-2.223V17.911z"/>
					<path d="M53.51,19.247c0-2.912,1.715-4.696,4.3-4.696s4.3,1.784,4.3,4.696c0,2.921-1.706,4.705-4.3,4.705
						S53.51,22.168,53.51,19.247z M60.214,19.247c0-2.008-0.948-3.162-2.404-3.162c-1.456,0-2.404,1.155-2.404,3.162
						c0,2.016,0.948,3.171,2.404,3.171C59.274,22.418,60.214,21.263,60.214,19.247z"/>
					<path d="M63.144,19.247c0-2.861,1.516-4.679,3.791-4.679c1.301,0,2.335,0.655,2.843,1.654h0.035v-4.877h1.87v12.434h-1.809
						v-1.542H69.84c-0.534,1.034-1.568,1.697-2.887,1.697C64.661,23.935,63.144,22.108,63.144,19.247z M65.049,19.247
						c0,1.913,0.922,3.111,2.396,3.111c1.43,0,2.387-1.215,2.387-3.111c0-1.878-0.956-3.111-2.387-3.111
						C65.971,16.136,65.049,17.343,65.049,19.247z"/>
					<path d="M79.383,17.834c-0.189-0.965-0.913-1.732-2.128-1.732c-1.439,0-2.387,1.198-2.387,3.145
						c0,1.99,0.957,3.145,2.404,3.145c1.146,0,1.896-0.629,2.111-1.68h1.792c-0.198,1.93-1.741,3.24-3.921,3.24
						c-2.594,0-4.282-1.775-4.282-4.705c0-2.878,1.689-4.696,4.265-4.696c2.335,0,3.757,1.499,3.921,3.283H79.383z"/>
					<path d="M82.133,21.203c0-1.586,1.215-2.559,3.369-2.68l2.482-0.146v-0.698c0-1.008-0.681-1.611-1.818-1.611
						c-1.077,0-1.749,0.517-1.913,1.327h-1.758c0.103-1.637,1.499-2.844,3.74-2.844c2.197,0,3.602,1.163,3.602,2.981v6.247h-1.784
						v-1.491H88.01c-0.526,1.008-1.672,1.646-2.861,1.646C83.374,23.935,82.133,22.832,82.133,21.203z M87.984,20.385v-0.715
						l-2.232,0.138c-1.112,0.078-1.741,0.569-1.741,1.344c0,0.793,0.655,1.31,1.654,1.31C86.967,22.461,87.984,21.565,87.984,20.385
						z"/>
					<path d="M94.867,14.551c2.111,0,3.481,1.172,3.542,2.844h-1.749c-0.103-0.879-0.75-1.43-1.792-1.43
						c-1.008,0-1.68,0.491-1.68,1.215c0,0.569,0.414,0.956,1.396,1.18l1.473,0.336c1.853,0.431,2.559,1.155,2.559,2.464
						c0,1.654-1.542,2.792-3.679,2.792c-2.266,0-3.628-1.112-3.8-2.835h1.844c0.172,0.948,0.819,1.413,1.956,1.413
						c1.12,0,1.809-0.465,1.809-1.206c0-0.586-0.336-0.931-1.327-1.155l-1.473-0.345c-1.723-0.396-2.577-1.224-2.577-2.542
						C91.369,15.662,92.782,14.551,94.867,14.551z"/>
					<path d="M102.512,12.569v2.146h1.723v1.474h-1.723v4.998c0,0.784,0.345,1.137,1.103,1.137c0.189,0,0.491-0.017,0.612-0.043
						v1.473c-0.207,0.052-0.62,0.086-1.034,0.086c-1.835,0-2.551-0.698-2.551-2.447v-5.204h-1.318v-1.474h1.318v-2.146H102.512z"/>
					<path d="M109.043,14.551c2.111,0,3.481,1.172,3.542,2.844h-1.749c-0.103-0.879-0.75-1.43-1.792-1.43
						c-1.008,0-1.68,0.491-1.68,1.215c0,0.569,0.414,0.956,1.396,1.18l1.473,0.336c1.853,0.431,2.559,1.155,2.559,2.464
						c0,1.654-1.542,2.792-3.679,2.792c-2.266,0-3.628-1.112-3.8-2.835h1.844c0.172,0.948,0.819,1.413,1.956,1.413
						c1.12,0,1.809-0.465,1.809-1.206c0-0.586-0.336-0.931-1.327-1.155l-1.473-0.345c-1.723-0.396-2.577-1.224-2.577-2.542
						C105.545,15.662,106.958,14.551,109.043,14.551z"/>
				</g>
			</g>
		</g>
		<g>
			<path d="M39.243,13.664c-1.109-0.082-2.051,0.62-2.576,0.62c-0.533,0-1.354-0.602-2.225-0.585
				c-1.144,0.017-2.198,0.665-2.787,1.689c-1.188,2.062-0.303,5.117,0.854,6.79c0.566,0.817,1.241,1.739,2.128,1.705
				c0.853-0.034,1.176-0.552,2.208-0.552c1.031,0,1.322,0.552,2.224,0.535c0.919-0.017,1.5-0.834,2.062-1.656
				c0.65-0.949,0.917-1.868,0.933-1.916c-0.02-0.008-1.79-0.687-1.808-2.726c-0.016-1.705,1.392-2.525,1.456-2.564
				C40.912,13.826,39.677,13.696,39.243,13.664z"/>
			<path d="M38.558,12.56c0.471-0.569,0.788-1.362,0.701-2.151c-0.678,0.027-1.498,0.452-1.985,1.021
				c-0.436,0.504-0.818,1.311-0.714,2.084C37.316,13.572,38.087,13.13,38.558,12.56z"/>
		</g>
	</g>
	<g>
		<path d="M31.842,1.355h0.93v5.188h2.806v0.802h-3.735V1.355z"/>
		<path d="M36.671,1.471c0-0.312,0.253-0.564,0.564-0.564c0.308,0,0.564,0.253,0.564,0.564c0,0.307-0.257,0.561-0.564,0.561
			C36.924,2.032,36.671,1.778,36.671,1.471z M36.784,2.836h0.896v4.508h-0.896V2.836z"/>
		<path d="M38.89,6.165V6.16h0.901l0.004,0.005c0.112,0.34,0.439,0.568,0.976,0.568c0.556,0,0.941-0.253,0.941-0.623V6.103
			c0-0.282-0.211-0.474-0.734-0.594L40.26,5.343c-0.851-0.195-1.245-0.581-1.245-1.241V4.098c0-0.784,0.73-1.349,1.751-1.349
			c1.029,0,1.689,0.515,1.769,1.249v0.004h-0.859V3.994c-0.087-0.315-0.406-0.552-0.913-0.552c-0.494,0-0.851,0.244-0.851,0.605
			v0.009c0,0.282,0.207,0.456,0.714,0.576l0.714,0.162c0.867,0.203,1.282,0.573,1.282,1.225v0.008c0,0.835-0.797,1.403-1.867,1.403
			C39.667,7.431,38.978,6.92,38.89,6.165z"/>
		<path d="M44.085,6.157v-2.61H43.38v-0.71h0.705V1.699h0.917v1.137h0.968v0.71h-0.968v2.395c0,0.485,0.183,0.685,0.627,0.685
			c0.137,0,0.216-0.004,0.341-0.017v0.719c-0.146,0.024-0.312,0.045-0.486,0.045C44.493,7.372,44.085,7.024,44.085,6.157z"/>
		<path d="M46.868,5.103V5.098c0-1.406,0.813-2.349,2.071-2.349c1.257,0,2.029,0.909,2.029,2.262v0.315h-3.196
			c0.017,0.863,0.49,1.365,1.233,1.365c0.576,0,0.921-0.286,1.029-0.519l0.017-0.033l0.867-0.004L50.91,6.173
			c-0.149,0.594-0.771,1.258-1.926,1.258C47.665,7.431,46.868,6.531,46.868,5.103z M47.785,4.683h2.291
			c-0.07-0.805-0.522-1.195-1.133-1.195C48.329,3.488,47.864,3.907,47.785,4.683z"/>
		<path d="M52.157,2.836h0.901v0.685h0.066c0.22-0.481,0.651-0.771,1.307-0.771c1.009,0,1.565,0.602,1.565,1.677v2.918H55.1V4.638
			c0-0.747-0.312-1.117-0.972-1.117s-1.07,0.453-1.07,1.179v2.645h-0.901V2.836z"/>
		<path d="M59.587,5.094V5.086c0-1.449,0.813-2.337,2.133-2.337c1.316,0,2.13,0.884,2.13,2.337v0.008c0,1.453-0.81,2.337-2.13,2.337
			C60.397,7.431,59.587,6.547,59.587,5.094z M62.932,5.094V5.086c0-1.001-0.439-1.586-1.212-1.586c-0.775,0-1.212,0.585-1.212,1.586
			v0.008c0,1,0.437,1.586,1.212,1.586C62.493,6.68,62.932,6.09,62.932,5.094z"/>
		<path d="M65.039,2.836h0.9v0.685h0.066c0.22-0.481,0.651-0.771,1.308-0.771c1.009,0,1.564,0.602,1.564,1.677v2.918h-0.896V4.638
			c0-0.747-0.312-1.117-0.971-1.117c-0.66,0-1.071,0.453-1.071,1.179v2.645h-0.9V2.836z"/>
	</g>
</g>
<g>
</g>
<g>
</g>
<g>
</g>
<g>
</g>
<g>
</g>
<g>
</g>
<g>
</g>
<g>
</g>
<g>
</g>
<g>
</g>
<g>
</g>
<g>
</g>
<g>
</g>
<g>
</g>
<g>
</g>
</svg>
