<svg width="141" height="46" viewBox="0 0 141 46" fill="none" xmlns="http://www.w3.org/2000/svg">
<rect x="0.985229" y="0.664673" width="139" height="44" rx="22" fill="white" stroke="#212121"/>
<path d="M38.4003 35.5197C38.4003 35.5197 49.9055 35.5197 52.7593 34.7484C54.3662 34.3113 55.5746 33.0515 55.9988 31.496C56.783 28.6422 56.783 22.639 56.783 22.639C56.783 22.639 56.783 16.6743 55.9988 13.8462C55.5746 12.2521 54.3662 11.0181 52.7593 10.5938C49.9055 9.80969 38.4003 9.80969 38.4003 9.80969C38.4003 9.80969 26.9208 9.80969 24.0799 10.5938C22.4987 11.0181 21.2646 12.2521 20.8147 13.8462C20.0563 16.6743 20.0563 22.639 20.0563 22.639C20.0563 22.639 20.0563 28.6422 20.8147 31.496C21.2646 33.0515 22.4987 34.3113 24.0799 34.7484C26.9208 35.5197 38.4003 35.5197 38.4003 35.5197Z" fill="#FF0000"/>
<path d="M44.2759 22.639L34.7504 17.15V28.1667L44.2759 22.639Z" fill="white"/>
<path d="M67.4029 16.4974L68.8141 11.5364H69.4976L69.1021 13.4651L67.5836 18.6458H66.9049L67.4029 16.4974ZM65.943 11.5364L67.066 16.3997L67.4029 18.6458H66.7291L65.0055 11.5364H65.943ZM71.3238 16.3948L72.4225 11.5364H73.3648L71.6461 18.6458H70.9723L71.3238 16.3948ZM69.6002 11.5364L70.9723 16.4974L71.4703 18.6458H70.7916L69.3267 13.4651L68.9264 11.5364H69.6002Z" fill="#212121"/>
<path d="M77.2223 17.7425V15.0228C77.2223 14.8144 77.1799 14.6338 77.0953 14.4808C77.0139 14.3245 76.8902 14.2041 76.7242 14.1194C76.5582 14.0348 76.3531 13.9925 76.109 13.9925C75.8811 13.9925 75.6809 14.0316 75.5084 14.1097C75.3391 14.1878 75.2057 14.2903 75.108 14.4173C75.0136 14.5443 74.9664 14.681 74.9664 14.8275H74.0631C74.0631 14.6387 74.1119 14.4515 74.2096 14.2659C74.3072 14.0804 74.4472 13.9127 74.6295 13.763C74.815 13.61 75.0364 13.4896 75.2935 13.4017C75.554 13.3105 75.8437 13.265 76.1627 13.265C76.5468 13.265 76.8853 13.3301 77.1783 13.4603C77.4745 13.5905 77.7057 13.7874 77.8717 14.0511C78.0409 14.3115 78.1256 14.6387 78.1256 15.0325V17.4935C78.1256 17.6693 78.1402 17.8564 78.1695 18.055C78.2021 18.2536 78.2493 18.4245 78.3111 18.5677V18.6458H77.3687C77.3232 18.5416 77.2874 18.4033 77.2613 18.2308C77.2353 18.055 77.2223 17.8922 77.2223 17.7425ZM77.3785 15.4427L77.3883 16.0775H76.4752C76.218 16.0775 75.9885 16.0986 75.7867 16.1409C75.5849 16.18 75.4156 16.2402 75.2789 16.3216C75.1422 16.403 75.038 16.5055 74.9664 16.6292C74.8948 16.7497 74.859 16.8913 74.859 17.054C74.859 17.22 74.8964 17.3714 74.9713 17.5081C75.0461 17.6448 75.1585 17.7539 75.3082 17.8353C75.4612 17.9134 75.6484 17.9525 75.8697 17.9525C76.1464 17.9525 76.3905 17.8939 76.6021 17.7767C76.8137 17.6595 76.9814 17.5163 77.1051 17.347C77.232 17.1777 77.3004 17.0133 77.3101 16.8538L77.6959 17.2884C77.6731 17.4251 77.6113 17.5765 77.5103 17.7425C77.4094 17.9085 77.2743 18.068 77.1051 18.221C76.9391 18.3707 76.7405 18.4961 76.5094 18.597C76.2815 18.6946 76.0243 18.7435 75.7379 18.7435C75.3798 18.7435 75.0657 18.6735 74.7955 18.5335C74.5286 18.3935 74.3202 18.2064 74.1705 17.972C74.024 17.7344 73.9508 17.4691 73.9508 17.1761C73.9508 16.8929 74.0061 16.6439 74.1168 16.429C74.2275 16.2109 74.387 16.0303 74.5953 15.887C74.8036 15.7405 75.0543 15.6299 75.3473 15.555C75.6402 15.4801 75.9674 15.4427 76.3287 15.4427H77.3785Z" fill="#212121"/>
<path d="M81.7584 13.3626V14.056H78.9019V13.3626H81.7584ZM79.8687 12.0784H80.7721V17.3372C80.7721 17.5163 80.7997 17.6513 80.8551 17.7425C80.9104 17.8336 80.982 17.8939 81.0699 17.9232C81.1578 17.9525 81.2522 17.9671 81.3531 17.9671C81.428 17.9671 81.5061 17.9606 81.5875 17.9476C81.6721 17.9313 81.7356 17.9183 81.7779 17.9085L81.7828 18.6458C81.7112 18.6686 81.6168 18.6898 81.4996 18.7093C81.3857 18.7321 81.2473 18.7435 81.0846 18.7435C80.8632 18.7435 80.6598 18.6995 80.4742 18.6116C80.2887 18.5237 80.1405 18.3773 80.0299 18.1722C79.9225 17.9638 79.8687 17.6839 79.8687 17.3323V12.0784Z" fill="#212121"/>
<path d="M84.9322 18.0013C85.1471 18.0013 85.3456 17.9573 85.5279 17.8694C85.7102 17.7816 85.86 17.6611 85.9771 17.5081C86.0943 17.3519 86.1611 17.1745 86.1773 16.9759H87.0367C87.0204 17.2884 86.9146 17.5797 86.7193 17.8499C86.5273 18.1168 86.275 18.3333 85.9625 18.4993C85.65 18.6621 85.3066 18.7435 84.9322 18.7435C84.5351 18.7435 84.1884 18.6735 83.8922 18.5335C83.5992 18.3935 83.3551 18.2015 83.1598 17.9573C82.9677 17.7132 82.8228 17.4332 82.7252 17.1175C82.6308 16.7985 82.5836 16.4616 82.5836 16.1068V15.9017C82.5836 15.5469 82.6308 15.2116 82.7252 14.8958C82.8228 14.5768 82.9677 14.2952 83.1598 14.0511C83.3551 13.8069 83.5992 13.6149 83.8922 13.4749C84.1884 13.3349 84.5351 13.265 84.9322 13.265C85.3456 13.265 85.707 13.3496 86.0162 13.5189C86.3254 13.6849 86.568 13.9127 86.7437 14.2025C86.9228 14.4889 87.0204 14.8144 87.0367 15.179H86.1773C86.1611 14.9609 86.0992 14.764 85.9918 14.5882C85.8876 14.4124 85.7444 14.2724 85.5621 14.1683C85.3831 14.0609 85.1731 14.0071 84.9322 14.0071C84.6555 14.0071 84.4228 14.0625 84.234 14.1732C84.0484 14.2806 83.9003 14.4271 83.7896 14.6126C83.6822 14.7949 83.6041 14.9984 83.5553 15.223C83.5097 15.4443 83.4869 15.6706 83.4869 15.9017V16.1068C83.4869 16.3379 83.5097 16.5657 83.5553 16.7903C83.6008 17.015 83.6773 17.2184 83.7848 17.4007C83.8954 17.583 84.0435 17.7295 84.2291 17.8401C84.4179 17.9476 84.6523 18.0013 84.9322 18.0013Z" fill="#212121"/>
<path d="M88.9557 11.1458V18.6458H88.0523V11.1458H88.9557ZM88.7408 15.804L88.3648 15.7894C88.3681 15.428 88.4218 15.0944 88.526 14.7884C88.6301 14.4791 88.7766 14.2106 88.9654 13.9827C89.1542 13.7549 89.3788 13.5791 89.6392 13.4554C89.9029 13.3284 90.1943 13.265 90.5133 13.265C90.7737 13.265 91.0081 13.3008 91.2164 13.3724C91.4247 13.4407 91.6021 13.5514 91.7486 13.7044C91.8984 13.8574 92.0123 14.056 92.0904 14.3001C92.1685 14.541 92.2076 14.8356 92.2076 15.1839V18.6458H91.2994V15.1741C91.2994 14.8974 91.2587 14.6761 91.1773 14.5101C91.096 14.3408 90.9771 14.2187 90.8209 14.1439C90.6646 14.0657 90.4726 14.0267 90.2447 14.0267C90.0201 14.0267 89.815 14.0739 89.6295 14.1683C89.4472 14.2627 89.2893 14.3929 89.1558 14.5589C89.0256 14.7249 88.9231 14.9153 88.8482 15.1302C88.7766 15.3418 88.7408 15.5664 88.7408 15.804Z" fill="#212121"/>
<path d="M95.8014 16.0628V15.9505C95.8014 15.5696 95.8567 15.2165 95.9674 14.8909C96.078 14.5622 96.2376 14.2773 96.4459 14.0364C96.6542 13.7923 96.9065 13.6035 97.2027 13.47C97.4989 13.3333 97.831 13.265 98.1988 13.265C98.5699 13.265 98.9036 13.3333 99.1998 13.47C99.4993 13.6035 99.7532 13.7923 99.9615 14.0364C100.173 14.2773 100.334 14.5622 100.445 14.8909C100.556 15.2165 100.611 15.5696 100.611 15.9505V16.0628C100.611 16.4437 100.556 16.7969 100.445 17.1224C100.334 17.4479 100.173 17.7327 99.9615 17.9769C99.7532 18.2178 99.5009 18.4066 99.2047 18.5433C98.9117 18.6767 98.5797 18.7435 98.2086 18.7435C97.8375 18.7435 97.5038 18.6767 97.2076 18.5433C96.9114 18.4066 96.6575 18.2178 96.4459 17.9769C96.2376 17.7327 96.078 17.4479 95.9674 17.1224C95.8567 16.7969 95.8014 16.4437 95.8014 16.0628ZM96.7047 15.9505V16.0628C96.7047 16.3265 96.7356 16.5755 96.7975 16.8099C96.8593 17.041 96.9521 17.2461 97.0758 17.4251C97.2027 17.6041 97.3606 17.7457 97.5494 17.8499C97.7382 17.9508 97.9579 18.0013 98.2086 18.0013C98.456 18.0013 98.6725 17.9508 98.858 17.8499C99.0468 17.7457 99.203 17.6041 99.3267 17.4251C99.4504 17.2461 99.5432 17.041 99.6051 16.8099C99.6702 16.5755 99.7027 16.3265 99.7027 16.0628V15.9505C99.7027 15.6901 99.6702 15.4443 99.6051 15.2132C99.5432 14.9788 99.4488 14.7721 99.3219 14.5931C99.1982 14.4108 99.0419 14.2676 98.8531 14.1634C98.6676 14.0592 98.4495 14.0071 98.1988 14.0071C97.9514 14.0071 97.7333 14.0592 97.5445 14.1634C97.359 14.2676 97.2027 14.4108 97.0758 14.5931C96.9521 14.7721 96.8593 14.9788 96.7975 15.2132C96.7356 15.4443 96.7047 15.6901 96.7047 15.9505Z" fill="#212121"/>
<path d="M102.647 14.4905V18.6458H101.744V13.3626H102.598L102.647 14.4905ZM102.432 15.804L102.056 15.7894C102.059 15.428 102.113 15.0944 102.217 14.7884C102.322 14.4791 102.468 14.2106 102.657 13.9827C102.846 13.7549 103.07 13.5791 103.331 13.4554C103.594 13.3284 103.886 13.265 104.205 13.265C104.465 13.265 104.699 13.3008 104.908 13.3724C105.116 13.4407 105.294 13.5514 105.44 13.7044C105.59 13.8574 105.704 14.056 105.782 14.3001C105.86 14.541 105.899 14.8356 105.899 15.1839V18.6458H104.991V15.1741C104.991 14.8974 104.95 14.6761 104.869 14.5101C104.787 14.3408 104.669 14.2187 104.512 14.1439C104.356 14.0657 104.164 14.0267 103.936 14.0267C103.712 14.0267 103.506 14.0739 103.321 14.1683C103.139 14.2627 102.981 14.3929 102.847 14.5589C102.717 14.7249 102.615 14.9153 102.54 15.1302C102.468 15.3418 102.432 15.5664 102.432 15.804Z" fill="#212121"/>
<path d="M68.4036 33.9435V29.8635L64.7716 23.0475H66.6916L69.3316 28.1355L72.0516 23.0475H73.9076L70.2596 29.8635L70.2436 33.9435H68.4036Z" fill="#212121"/>
<path d="M76.9817 34.1835C75.8617 34.1835 74.9977 33.8369 74.3897 33.1435C73.7817 32.4502 73.4777 31.4742 73.4777 30.2155C73.4777 28.9675 73.7817 27.9969 74.3897 27.3035C74.9977 26.6102 75.8617 26.2635 76.9817 26.2635C78.1017 26.2635 78.9657 26.6102 79.5737 27.3035C80.1817 27.9969 80.4857 28.9675 80.4857 30.2155C80.4857 31.4742 80.1817 32.4502 79.5737 33.1435C78.9657 33.8369 78.1017 34.1835 76.9817 34.1835ZM76.9817 32.6955C77.5471 32.6955 77.9844 32.4822 78.2937 32.0555C78.6031 31.6289 78.7577 31.0155 78.7577 30.2155C78.7577 29.4475 78.6031 28.8449 78.2937 28.4075C77.9844 27.9702 77.5471 27.7515 76.9817 27.7515C76.4164 27.7515 75.9791 27.9702 75.6697 28.4075C75.3604 28.8449 75.2057 29.4475 75.2057 30.2155C75.2057 31.0155 75.3604 31.6289 75.6697 32.0555C75.9791 32.4822 76.4164 32.6955 76.9817 32.6955Z" fill="#212121"/>
<path d="M84.8372 34.1675C83.9839 34.1675 83.3119 33.9062 82.8212 33.3835C82.3412 32.8609 82.1012 32.0929 82.1012 31.0795V26.5035H83.8292V30.6955C83.8292 31.0475 83.8612 31.3675 83.9252 31.6555C83.9999 31.9329 84.1332 32.1569 84.3252 32.3275C84.5172 32.4982 84.8052 32.5835 85.1892 32.5835C85.6799 32.5835 86.0639 32.4235 86.3412 32.1035C86.6186 31.7729 86.7572 31.2662 86.7572 30.5835V26.5035H88.4852V33.9435H86.9332V33.1435C86.4319 33.8262 85.7332 34.1675 84.8372 34.1675Z" fill="#212121"/>
<path d="M92.0626 33.9435V24.6955H88.7186V23.0475H97.5346L96.9906 24.6955H93.9186V33.9435H92.0626Z" fill="#212121"/>
<path d="M100.068 34.1675C99.2151 34.1675 98.5431 33.9062 98.0525 33.3835C97.5725 32.8609 97.3325 32.0929 97.3325 31.0795V26.5035H99.0605V30.6955C99.0605 31.0475 99.0925 31.3675 99.1565 31.6555C99.2311 31.9329 99.3645 32.1569 99.5565 32.3275C99.7485 32.4982 100.036 32.5835 100.42 32.5835C100.911 32.5835 101.295 32.4235 101.572 32.1035C101.85 31.7729 101.988 31.2662 101.988 30.5835V26.5035H103.716V33.9435H102.164V33.1435C101.663 33.8262 100.964 34.1675 100.068 34.1675Z" fill="#212121"/>
<path d="M109.806 34.1675C108.9 34.1675 108.185 33.8422 107.662 33.1915V33.9435H106.03V23.0475H107.758V27.1435C108.292 26.5675 108.974 26.2795 109.806 26.2795C110.798 26.2795 111.572 26.6262 112.126 27.3195C112.692 28.0022 112.974 28.9675 112.974 30.2155C112.974 31.4742 112.692 32.4502 112.126 33.1435C111.561 33.8262 110.788 34.1675 109.806 34.1675ZM109.502 32.6955C110.057 32.6955 110.484 32.4875 110.782 32.0715C111.092 31.6449 111.246 31.0262 111.246 30.2155C111.246 29.4582 111.092 28.8609 110.782 28.4235C110.484 27.9755 110.057 27.7515 109.502 27.7515C108.937 27.7515 108.505 27.9702 108.206 28.4075C107.908 28.8449 107.758 29.4475 107.758 30.2155C107.758 31.0155 107.908 31.6289 108.206 32.0555C108.505 32.4822 108.937 32.6955 109.502 32.6955Z" fill="#212121"/>
<path d="M117.81 34.1675C116.69 34.1675 115.821 33.8209 115.202 33.1275C114.584 32.4342 114.274 31.4849 114.274 30.2795C114.274 29.4902 114.402 28.7969 114.658 28.1995C114.925 27.6022 115.309 27.1329 115.81 26.7915C116.322 26.4502 116.941 26.2795 117.666 26.2795C118.733 26.2795 119.538 26.6262 120.082 27.3195C120.637 28.0022 120.914 28.9089 120.914 30.0395C120.914 30.1782 120.904 30.3062 120.882 30.4235C120.872 30.5409 120.856 30.6635 120.834 30.7915H115.954C116.018 31.4849 116.232 31.9862 116.594 32.2955C116.957 32.5942 117.432 32.7435 118.018 32.7435C118.349 32.7435 118.637 32.6955 118.882 32.5995C119.138 32.4929 119.421 32.3062 119.73 32.0395L120.61 33.1275C120.205 33.4902 119.778 33.7569 119.33 33.9275C118.882 34.0875 118.376 34.1675 117.81 34.1675ZM117.682 27.7035C117.17 27.7035 116.77 27.8742 116.482 28.2155C116.194 28.5569 116.018 29.0262 115.954 29.6235H119.394C119.362 29.0155 119.202 28.5462 118.914 28.2155C118.626 27.8742 118.216 27.7035 117.682 27.7035Z" fill="#212121"/>
</svg>
