<?xml version="1.0" encoding="UTF-8"?>
<svg id="Layer_2" data-name="Layer 2" xmlns="http://www.w3.org/2000/svg" viewBox="0 0 841.37 309.51">
  <defs>
    <style>
      .cls-1 {
        fill: #fff;
      }

      .cls-2 {
        fill: #4a8f52;
      }
    </style>
  </defs>
  <g id="_Слой_1" data-name="Слой 1">
    <g>
      <g>
        <path class="cls-1" d="m119.91,182.53h-38.03v-75.29c0-17.91-6.97-26.87-20.92-26.87-15.29,0-22.94,10.31-22.94,30.93v71.24H0V50.7h36.25v14.7c7.94-12.33,19.6-18.5,34.99-18.5s27.76,4.44,36.12,13.31c8.37,8.87,12.55,21.25,12.55,37.14v85.18Z"/>
        <path class="cls-1" d="m212.18,46.65c20.45,0,37.39,6.46,50.83,19.39,13.44,12.93,20.15,29.62,20.15,50.07s-6.72,37.22-20.15,50.32c-13.43,13.1-30.38,19.65-50.83,19.65s-36.97-6.63-50.57-19.9c-13.61-13.27-20.41-29.95-20.41-50.07s6.8-36.72,20.41-49.82c13.6-13.09,30.46-19.65,50.57-19.65Zm34.48,69.97c0-10.48-3.17-19.18-9.51-26.11-6.34-6.93-14.66-10.39-24.97-10.39s-18.38,3.51-24.72,10.52c-6.34,7.01-9.51,15.68-9.51,25.98s3.21,18.68,9.63,25.6c6.42,6.93,14.62,10.39,24.59,10.39s18.42-3.42,24.84-10.27c6.42-6.84,9.63-15.42,9.63-25.73Z"/>
        <path class="cls-1" d="m365.55,78.59h-18v103.94h-38.03v-103.94h-15.97v-27.89h15.97V7.1h38.03v43.6h18v27.89Z"/>
        <path class="cls-1" d="m488.25,123.46c0,41.57-20.11,62.36-60.33,62.36-17.24,0-31.1-5.32-41.58-15.97-10.48-10.65-15.72-24.59-15.72-41.83h43.6c0,14.03,5.24,21.04,15.72,21.04,11.15,0,16.73-8.28,16.73-24.84V0h41.58v123.46Z"/>
        <path class="cls-1" d="m637.56,182.53h-35.75v-14.7c-7.1,12.34-18,18.51-32.7,18.51-16.06,0-28.65-5.07-37.77-15.21-8.79-9.63-13.18-22.65-13.18-39.04V50.7h38.03v73.77c0,18.93,7.02,28.39,21.05,28.39,14.87,0,22.3-10.31,22.3-30.93V50.7h38.03v131.82Z"/>
        <path class="cls-1" d="m759.75,144.25c0,13.69-5.24,24.34-15.72,31.94-9.46,6.93-21.29,10.39-35.49,10.39s-25.27-4.06-34.73-12.17c-9.47-8.11-14.7-18.84-15.72-32.2h35.24c.5,10.14,6,15.21,16.48,15.21,9.8,0,14.7-4.14,14.7-12.42,0-5.91-5.49-11.07-16.48-15.46-18.43-7.44-28.65-11.83-30.67-13.18-10.99-6.76-16.48-15.97-16.48-27.63,0-12.68,4.9-23.07,14.7-31.18,9.13-7.43,20.19-11.15,33.21-11.15,28.56,0,44.36,13.52,47.41,40.56h-34.98c0-7.61-4.4-11.41-13.18-11.41-7.95,0-11.92,3.47-11.92,10.39,0,3.89,3.63,7.27,10.9,10.14,4.73,2.03,11.83,5.07,21.29,9.12,20.95,8.45,31.43,21.46,31.43,39.04Z"/>
        <path class="cls-1" d="m841.37,78.59h-18v103.94h-38.03v-103.94h-15.97v-27.89h15.97V7.1h38.03v43.6h18v27.89Z"/>
      </g>
      <g>
        <path class="cls-2" d="m255.87,251.25l-31.56,31.56v8.56c0,1.16-.94,2.03-2.03,2.03h-4.06c-1.09,0-1.96-.87-1.96-2.03v-10.88c0-.58.22-1.09.58-1.52l31.64-31.56v-8.42c0-1.16.87-2.03,2.03-2.03h3.99c1.16,0,2.03.87,2.03,2.03v10.74c0,.58-.22,1.09-.65,1.52Z"/>
        <path class="cls-2" d="m304.27,251.25l-31.56,31.56v8.56c0,1.16-.94,2.03-2.03,2.03h-4.06c-1.09,0-1.96-.87-1.96-2.03v-10.88c0-.58.22-1.09.58-1.52l31.64-31.56v-8.42c0-1.16.87-2.03,2.03-2.03h3.99c1.16,0,2.03.87,2.03,2.03v10.74c0,.58-.22,1.09-.65,1.52Z"/>
        <path class="cls-2" d="m351.29,293.41h-22.13c-8.85,0-16.11-7.26-16.11-16.11v-8.06c0-8.92,7.26-16.18,16.11-16.18h16.11v-14.08c0-1.16.87-2.03,2.03-2.03h3.99c1.16,0,2.03.87,2.03,2.03v52.39c0,1.16-.87,2.03-2.03,2.03Zm-6.02-32.22h-16.11c-4.43,0-8.05,3.63-8.05,8.05v8.06c0,4.43,3.63,8.05,8.05,8.05h16.11v-24.17Z"/>
        <path class="cls-2" d="m399.69,293.41h-22.13c-8.85,0-16.11-7.26-16.11-16.11v-8.06c0-8.92,7.26-16.18,16.11-16.18h8.05c8.85,0,16.11,7.26,16.11,16.18v6.02c0,1.16-.87,2.03-2.03,2.03h-30.19c0,4.43,3.63,8.05,8.05,8.05h22.13c1.16,0,2.03.87,2.03,2.03v3.99c0,1.16-.87,2.03-2.03,2.03Zm-14.08-32.22h-8.05c-4.43,0-8.05,3.63-8.05,8.05h24.16c0-4.43-3.63-8.05-8.06-8.05Z"/>
        <path class="cls-2" d="m449.47,275.41l-18.14,18.21c-.29.36-.8.51-1.38.51-.51,0-1.02-.15-1.38-.51l-18.14-18.21c-.36-.36-.58-.94-.58-1.52v-18.79c0-1.09.87-2.03,1.96-2.03h4.06c1.09,0,2.03.94,2.03,2.03v16.54l12.05,12.12,12.12-12.12v-16.47c0-1.16.87-2.1,2.03-2.1h3.99c1.16,0,2.03.94,2.03,2.03v18.79c0,.58-.22,1.16-.65,1.52Z"/>
        <path class="cls-2" d="m496.49,293.41h-22.13c-8.85,0-16.11-7.26-16.11-16.11v-8.06c0-8.92,7.26-16.18,16.11-16.18h8.05c8.85,0,16.11,7.26,16.11,16.18v6.02c0,1.16-.87,2.03-2.03,2.03h-30.19c0,4.43,3.63,8.05,8.05,8.05h22.13c1.16,0,2.03.87,2.03,2.03v3.99c0,1.16-.87,2.03-2.03,2.03Zm-14.08-32.22h-8.05c-4.43,0-8.05,3.63-8.05,8.05h24.16c0-4.43-3.63-8.05-8.06-8.05Z"/>
        <path class="cls-2" d="m544.89,293.41h-36.28c-1.09,0-1.96-.87-1.96-2.03v-3.99c0-1.16.87-2.03,1.96-2.03h14.15v-40.35h-6.09c-1.09,0-1.96-.87-1.96-1.96v-4.06c0-1.16.87-2.03,1.96-2.03h12.12c1.16,0,2.03.87,2.03,2.03v46.37h14.08c1.16,0,2.03.87,2.03,2.03v3.99c0,1.16-.87,2.03-2.03,2.03Z"/>
        <path class="cls-2" d="m579.21,293.41h-8.05c-8.85,0-16.11-7.26-16.11-16.11v-8.06c0-8.92,7.26-16.18,16.11-16.18h8.05c8.85,0,16.11,7.26,16.11,16.18v8.06c0,8.85-7.26,16.11-16.11,16.11Zm8.06-24.16c0-4.43-3.63-8.05-8.06-8.05h-8.05c-4.43,0-8.05,3.63-8.05,8.05v8.06c0,4.43,3.63,8.05,8.05,8.05h8.05c4.43,0,8.06-3.63,8.06-8.05v-8.06Z"/>
        <path class="cls-2" d="m627.61,293.41h-16.11v14.08c0,1.16-.94,2.03-2.03,2.03h-4.06c-1.09,0-1.96-.87-1.96-2.03v-52.39c0-1.09.87-2.03,1.96-2.03h22.2c8.85,0,16.11,7.26,16.11,16.18v8.06c0,8.85-7.26,16.11-16.11,16.11Zm8.06-24.16c0-4.43-3.63-8.05-8.06-8.05h-16.11v24.17h16.11c4.43,0,8.06-3.63,8.06-8.05v-8.06Z"/>
        <path class="cls-2" d="m690.08,293.41h-3.99c-1.16,0-2.03-.87-2.03-2.03v-26.19c0-2.18-1.89-3.99-4.06-3.99s-3.99,1.81-3.99,3.99v26.19c0,1.16-.87,2.03-2.03,2.03h-3.99c-1.16,0-2.03-.87-2.03-2.03v-26.19c0-2.18-1.89-3.99-4.06-3.99h-3.99v30.19c0,1.16-.94,2.03-2.03,2.03h-4.06c-1.09,0-1.96-.87-1.96-2.03v-36.28c0-1.09.87-2.03,1.96-2.03h10.09c3.19,0,5.95,1.16,8.06,3.12,2.1-1.96,4.93-3.12,8.05-3.12,6.75,0,12.12,5.44,12.12,12.12v26.19c0,1.16-.87,2.03-2.03,2.03Z"/>
        <path class="cls-2" d="m738.48,293.41h-22.13c-8.85,0-16.11-7.26-16.11-16.11v-8.06c0-8.92,7.26-16.18,16.11-16.18h8.05c8.85,0,16.11,7.26,16.11,16.18v6.02c0,1.16-.87,2.03-2.03,2.03h-30.19c0,4.43,3.63,8.05,8.05,8.05h22.13c1.16,0,2.03.87,2.03,2.03v3.99c0,1.16-.87,2.03-2.03,2.03Zm-14.08-32.22h-8.05c-4.43,0-8.05,3.63-8.05,8.05h24.16c0-4.43-3.63-8.05-8.06-8.05Z"/>
        <path class="cls-2" d="m786.88,293.41h-3.99c-1.16,0-2.03-.87-2.03-2.03v-22.13c0-4.43-3.63-8.05-8.06-8.05h-16.11v30.19c0,1.16-.94,2.03-2.03,2.03h-4.06c-1.09,0-1.96-.87-1.96-2.03v-36.28c0-1.09.87-2.03,1.96-2.03h22.2c8.85,0,16.11,7.26,16.11,16.18v22.13c0,1.16-.87,2.03-2.03,2.03Z"/>
        <path class="cls-2" d="m835.28,293.41h-6.02c-8.85,0-16.11-7.26-16.11-16.11v-16.11h-14.15c-1.09,0-1.96-.94-1.96-2.03v-4.06c0-1.09.87-2.03,1.96-2.03h14.15v-14.08c0-1.16.87-2.03,2.03-2.03h3.99c1.16,0,2.03.87,2.03,2.03v14.08h14.08c1.16,0,2.03.94,2.03,2.03v4.06c0,1.09-.87,2.03-2.03,2.03h-14.08v16.11c0,4.43,3.63,8.05,8.06,8.05h6.02c1.16,0,2.03.87,2.03,2.03v3.99c0,1.16-.87,2.03-2.03,2.03Z"/>
      </g>
    </g>
  </g>
</svg>