<svg width="200" height="200" viewBox="0 0 200 200" fill="none" xmlns="http://www.w3.org/2000/svg">
<g opacity="0.1">
<path d="M94.7726 75.9166C96.4081 73.5058 98.1986 73.1992 99.6511 73.1992C101.104 73.1992 103.523 73.5058 105.159 75.9166C118.052 93.6247 139.332 128.9 155.03 154.921C165.268 171.89 173.13 184.923 174.743 186.582C180.799 192.809 189.104 188.928 193.93 181.865C198.681 174.912 200 170.03 200 164.821C200 161.274 131.168 33.2589 124.236 22.6033C117.57 12.3544 115.398 9.76562 103.989 9.76562H95.4505C84.0746 9.76562 82.4308 12.3544 75.7637 22.6033C68.8324 33.2589 0 161.274 0 164.821C0 170.03 1.31897 174.912 6.07016 181.865C10.8961 188.928 19.2012 192.809 25.2567 186.582C26.87 184.923 34.7328 171.89 44.97 154.921C60.6677 128.9 81.8802 93.6247 94.7726 75.9166Z" fill="#FFF9E0"/>
</g>
</svg>
