<svg width="200" height="200" viewBox="0 0 200 200" fill="none" xmlns="http://www.w3.org/2000/svg">
<g opacity="0.1" clip-path="url(#clip0_236_217)">
<path fill-rule="evenodd" clip-rule="evenodd" d="M95.1006 188.434L95.3354 184.134L95.6067 179.149C97.0602 179.228 98.5252 179.268 100 179.268C101.475 179.268 102.94 179.228 104.393 179.149L104.665 184.134L104.899 188.434C125.668 187.302 144.532 179.014 159.069 165.994L156.195 162.786L152.864 159.067C155.044 157.115 157.115 155.044 159.067 152.864L162.786 156.195L165.994 159.069C179.014 144.532 187.302 125.668 188.434 104.899L184.134 104.665L179.149 104.393C179.228 102.94 179.268 101.475 179.268 100C179.268 98.5252 179.228 97.0602 179.149 95.6067L184.134 95.3354L188.434 95.1006C187.302 74.3323 179.014 55.4683 165.994 40.9314L162.786 43.8046L159.067 47.1354C157.115 44.9559 155.044 42.885 152.864 40.9328L156.195 37.214L159.069 34.0062C144.532 20.986 125.668 12.6984 104.899 11.5662L104.665 15.8662L104.393 20.8511C102.94 20.7719 101.475 20.7317 100 20.7317C98.5252 20.7317 97.0602 20.7719 95.6067 20.8511L95.3354 15.8662L95.1006 11.5662C74.3323 12.6984 55.4683 20.986 40.9315 34.0062L43.8046 37.214L47.1354 40.9328C44.9559 42.885 42.885 44.9559 40.9328 47.1354L37.214 43.8046L34.0062 40.9315C20.986 55.4683 12.6984 74.3323 11.5662 95.1006L15.8662 95.3354L20.8511 95.6067C20.7719 97.0602 20.7317 98.5252 20.7317 100C20.7317 101.475 20.7719 102.94 20.8511 104.393L15.8662 104.665L11.5662 104.899C12.6984 125.668 20.986 144.532 34.0062 159.069L37.214 156.195L40.9328 152.864C42.885 155.044 44.9559 157.115 47.1354 159.067L43.8046 162.786L40.9315 165.994C55.4683 179.014 74.3323 187.302 95.1006 188.434ZM200 100C200 155.229 155.229 200 100 200C44.7715 200 0 155.229 0 100C0 44.7715 44.7715 0 100 0C155.229 0 200 44.7715 200 100Z" fill="#FFF9E0"/>
<path fill-rule="evenodd" clip-rule="evenodd" d="M41.4777 103.621L42.5351 100.373L43.61 98.9009C44.5129 97.6646 46.1943 95.9558 47.3244 94.8079C48.8119 93.2965 50.7742 91.3491 53.0312 89.1357C57.5546 84.6989 63.3928 79.0625 69.2722 73.4365C80.7317 62.4698 93.1974 50.7191 95.7813 48.6358L95.7851 48.6332L95.7881 48.6305C95.8826 48.5542 95.9833 48.4731 96.0884 48.3878C97.7653 47.0291 100.755 44.6072 104.508 43.5106C109.203 42.1392 113.363 43.1703 116.085 43.9599L116.264 44.0115L120.157 45.2787L120.331 45.3417C123.001 46.3075 126.97 47.9243 129.957 51.7979C132.343 54.8933 133.333 58.6093 133.888 60.6922C133.923 60.8235 133.956 60.9482 133.988 61.066L133.989 61.0691C134.868 64.3347 138.146 81.811 141.008 97.7454C142.475 105.916 143.889 113.999 144.909 120.152C145.417 123.217 145.838 125.867 146.12 127.829C146.259 128.794 146.38 129.7 146.459 130.447C146.496 130.803 146.541 131.275 146.564 131.765C146.575 132.001 146.588 132.404 146.572 132.883C146.572 132.889 146.572 132.898 146.572 132.909C146.564 133.158 146.524 134.541 146.004 136.141C144.473 140.846 141.704 144.483 137.328 147.849L137.326 147.851L137.324 147.851C134.428 150.078 130.273 152.07 125.475 152.012C119.922 151.945 114.437 149.024 111.57 143.21L111.566 143.201C111.032 142.117 110.697 140.985 110.594 140.635C110.588 140.618 110.585 140.604 110.581 140.591C110.406 140.002 110.223 139.329 110.043 138.637C109.679 137.241 109.239 135.431 108.749 133.377C108.184 131.006 107.521 128.163 106.803 125.082C106.282 122.852 105.732 120.498 105.17 118.107C103.651 111.648 102.034 104.912 100.513 99.016C95.8125 102.886 90.5412 107.381 85.5107 111.709C83.6494 113.31 81.8194 114.89 80.0854 116.387C77.6913 118.454 75.4816 120.361 73.63 121.946C72.0254 123.318 70.6033 124.522 69.4877 125.437C68.9352 125.889 68.3913 126.327 67.9032 126.7C67.8924 126.708 67.8801 126.717 67.8665 126.728C67.5767 126.95 66.6396 127.668 65.5695 128.23L65.561 128.235C59.8214 131.248 53.6684 130.38 49.1394 127.166C45.2261 124.389 43.0403 120.332 42.0092 116.828L42.0077 116.823C40.7271 112.463 40.3528 108.351 41.3702 104.073L41.4777 103.621ZM97.1349 87.0274C97.1357 87.0267 97.1365 87.0267 97.1365 87.0259C97.2134 86.9642 97.2904 86.9032 97.3666 86.8422C97.5206 86.7187 97.6746 86.596 97.827 86.4748C99.9985 84.7447 101.986 83.2149 103.689 81.9848C104.041 81.7195 104.453 81.5427 104.889 81.4703C105.325 81.3979 105.771 81.4322 106.192 81.5686C106.612 81.7058 106.994 81.9413 107.303 82.2561C107.613 82.5716 107.842 82.9566 107.971 83.378C108.623 85.375 109.329 87.782 110.067 90.4588C110.119 90.6463 110.171 90.8361 110.223 91.0267C110.248 91.1204 110.274 91.2157 110.3 91.3102C110.3 91.311 110.3 91.3117 110.301 91.3125C112.833 100.616 115.694 112.873 117.947 122.531C119.891 130.861 121.383 137.258 121.825 138.154C123.486 141.524 127.422 141.043 130.357 138.787C133.242 136.568 134.435 134.743 135.132 132.603C135.607 131.146 124.379 69.3498 122.949 64.0432C121.574 58.9433 121.035 57.7543 116.442 56.0928L112.901 54.9404C108.21 53.58 107.076 54.2207 102.957 57.5361C98.7698 60.9124 55.1012 102.552 52.8425 105.644L52.493 106.718C52.0506 108.579 52.0988 110.611 52.9772 113.601C54.022 117.152 56.9204 119.858 60.2473 118.111C61.132 117.646 66.1031 113.354 72.5778 107.764C80.0846 101.284 89.6121 93.0572 97.1349 87.0274Z" fill="#FFF9E0"/>
</g>
<defs>
<clipPath id="clip0_236_217">
<rect width="200" height="200" fill="white"/>
</clipPath>
</defs>
</svg>
