<svg width="200" height="200" viewBox="0 0 200 200" fill="none" xmlns="http://www.w3.org/2000/svg">
<g opacity="0.1" clip-path="url(#clip0_236_233)">
<path d="M89.25 32.25C96 34 96 34 100 38C100.638 43.2275 100.638 43.2275 100.828 49.7656C100.944 53.2654 100.944 53.2654 101.062 56.8359C101.124 59.2826 101.186 61.7292 101.25 64.25C101.366 67.9432 101.366 67.9432 101.484 71.7109C101.673 77.807 101.845 83.903 102 90C103.583 90.261 105.167 90.5221 106.798 90.791C113.996 91.9959 121.185 93.2474 128.375 94.5C130.867 94.9099 133.359 95.3198 135.926 95.7422C138.33 96.1676 140.734 96.593 143.211 97.0312C145.421 97.4083 147.631 97.7854 149.908 98.1738C156.833 100.25 160.76 103.076 166 108C170.3 116.601 168.459 128.053 168.5 137.5C168.541 139.862 168.582 142.223 168.625 144.656C168.727 167.238 168.727 167.238 162 176C152.873 183.294 146.792 185.009 135.18 184.992C133.8 184.995 132.42 184.998 130.998 185.001C128.099 184.998 125.199 184.975 122.3 184.933C117.88 184.875 113.464 184.892 109.043 184.918C90.1496 184.835 80.3729 182.83 66.9388 169.392C65.853 168.286 64.7672 167.179 63.6484 166.039C61.9384 164.321 61.9384 164.321 60.1938 162.567C56.578 158.929 52.9764 155.277 49.375 151.625C46.9163 149.146 44.4567 146.668 41.9961 144.191C35.9867 138.138 29.99 132.072 24 126C38 112 38 112 44 111.125C51.1611 111.254 56.198 113.774 62.5 117.055C64.2841 117.975 66.0681 118.895 67.9062 119.843C69.2572 120.555 70.6081 121.267 72 122C72.0187 119.558 72.0374 117.116 72.0566 114.6C72.1364 105.534 72.2679 96.4699 72.415 87.4053C72.4715 83.4829 72.5139 79.5603 72.542 75.6377C72.5848 69.9969 72.6781 64.3588 72.7812 58.7188C72.7849 56.0902 72.7849 56.0902 72.7887 53.4086C72.9758 45.6217 73.08 41.3168 77.623 34.8145C82 32 82 32 89.25 32.25Z" fill="#FFF9E0"/>
<path d="M107.922 2.125C121.501 9.62812 129.131 19.3939 134 34C135.316 48.5578 135.422 62.1208 126 74C122.73 76.7437 119.405 79.4252 116 82C115.971 80.7905 115.942 79.5811 115.912 78.335C115.762 72.8054 115.569 67.2782 115.375 61.75C115.307 58.896 115.307 58.896 115.238 55.9844C114.829 45.2687 114.063 37.2114 108 28C100.24 21.1426 94.0667 18.6636 83.9141 19.2266C75.5646 20.8765 70.0961 25.5008 64.75 31.875C60.5507 41.2279 60.8522 50.4802 60.625 60.625C60.5567 62.6785 60.4884 64.732 60.418 66.8477C60.2535 71.8982 60.1151 76.9481 60 82C49.5664 77.3507 45.6629 70.0385 41.375 59.625C38.9461 46.1554 39.3255 33.2796 46.375 21.25C60.8824 0.847698 83.9078 -6.49218 107.922 2.125Z" fill="#FFF9E0"/>
</g>
<defs>
<clipPath id="clip0_236_233">
<rect width="200" height="200" fill="white"/>
</clipPath>
</defs>
</svg>
