<svg width="187" height="200" viewBox="0 0 187 200" fill="none" xmlns="http://www.w3.org/2000/svg">
<g opacity="0.1">
<path d="M93.3887 116.212C102.392 116.212 109.692 108.953 109.692 99.9993C109.692 91.0456 102.392 83.7871 93.3887 83.7871C84.3849 83.7871 77.0859 91.0456 77.0859 99.9993C77.0859 108.953 84.3849 116.212 93.3887 116.212Z" fill="#FFF9E0"/>
<path fill-rule="evenodd" clip-rule="evenodd" d="M16.7338 91.4687C13.0367 94.7875 11.8215 97.6812 11.8215 99.9991C11.8215 102.317 13.0367 105.211 16.7338 108.53C20.4283 111.846 26.108 115.104 33.6307 117.96C48.6347 123.657 69.7609 127.304 93.3891 127.304C117.017 127.304 138.144 123.657 153.148 117.96C160.67 115.104 166.35 111.846 170.044 108.53C173.742 105.211 174.957 102.317 174.957 99.9991C174.957 97.6812 173.742 94.7875 170.044 91.4687C166.35 88.152 160.67 84.8946 153.148 82.0382C138.144 76.3412 117.017 72.6946 93.3891 72.6946C69.7609 72.6946 48.6347 76.3412 33.6307 82.0382C26.108 84.8946 20.4283 88.152 16.7338 91.4687ZM29.4344 70.9865C46.0914 64.6619 68.7044 60.873 93.3891 60.873C118.074 60.873 140.687 64.6619 157.344 70.9865C165.652 74.1409 172.783 78.0407 177.942 82.6717C183.098 87.3005 186.778 93.1448 186.778 99.9991C186.778 106.853 183.098 112.698 177.942 117.326C172.783 121.957 165.652 125.857 157.344 129.012C140.687 135.336 118.074 139.125 93.3891 139.125C68.7044 139.125 46.0914 135.336 29.4344 129.012C21.1267 125.857 13.9955 121.957 8.83674 117.326C3.68048 112.698 0 106.853 0 99.9991C0 93.1448 3.68048 87.3005 8.83674 82.6717C13.9955 78.0407 21.1267 74.1409 29.4344 70.9865Z" fill="#FFF9E0"/>
<path fill-rule="evenodd" clip-rule="evenodd" d="M62.5382 29.7307C57.8054 28.2081 54.6616 28.6007 52.6179 29.7741C50.5742 30.9475 48.6604 33.4587 47.62 38.2959C46.5795 43.1335 46.5825 49.6491 47.8556 57.551C50.3949 73.3123 57.7788 93.3218 69.5894 113.665C81.3999 134.007 95.1335 150.371 107.59 160.439C113.835 165.486 119.507 168.747 124.241 170.269C128.973 171.792 132.117 171.399 134.161 170.226C136.204 169.052 138.118 166.541 139.159 161.704C140.199 156.867 140.196 150.351 138.923 142.449C136.384 126.688 129 106.678 117.189 86.3354C105.379 65.9926 91.6452 49.6287 79.1889 39.5612C72.944 34.5139 67.2713 31.2534 62.5382 29.7307ZM86.6407 30.4086C100.484 41.5972 115.095 59.1843 127.441 80.4493C139.787 101.714 147.798 123.091 150.62 140.608C152.027 149.345 152.197 157.441 150.742 164.201C149.288 170.963 146.04 177.037 140.096 180.449C134.152 183.862 127.239 183.622 120.623 181.494C114.009 179.366 107.043 175.172 100.138 169.591C86.2947 158.403 71.6833 140.816 59.3374 119.551C46.9915 98.2857 38.9811 76.9086 36.1591 59.3923C34.7515 50.6553 34.5821 42.5594 36.0363 35.7986C37.4905 29.0374 40.7384 22.9634 46.6824 19.5507C52.6264 16.138 59.5401 16.3778 66.1552 18.506C72.7701 20.6341 79.7358 24.8279 86.6407 30.4086Z" fill="#FFF9E0"/>
<path fill-rule="evenodd" clip-rule="evenodd" d="M139.159 38.2961C138.119 33.4589 136.205 30.9477 134.161 29.7743C132.117 28.601 128.974 28.2083 124.241 29.7309C119.508 31.2536 113.835 34.5141 107.59 39.5614C95.1337 49.6289 81.4001 65.9928 69.5896 86.3356C57.7791 106.678 50.3951 126.688 47.8558 142.449C46.5828 150.351 46.5797 156.867 47.6202 161.704C48.6607 166.542 50.5745 169.053 52.6182 170.226C54.6618 171.399 57.8056 171.792 62.5384 170.269C67.2715 168.747 72.9442 165.486 79.1892 160.439C91.6455 150.371 105.379 134.008 117.19 113.665C129 93.322 136.384 73.3125 138.923 57.5512C140.196 49.6493 140.199 43.1337 139.159 38.2961ZM150.62 59.3925C147.798 76.9088 139.787 98.2859 127.442 119.551C115.096 140.816 100.484 158.403 86.641 169.592C79.7361 175.172 72.7703 179.366 66.1555 181.494C59.5403 183.622 52.6267 183.862 46.6827 180.45C40.7387 177.037 37.4907 170.963 36.0365 164.202C34.5823 157.441 34.7517 149.345 36.1593 140.608C38.9814 123.092 46.9917 101.715 59.3376 80.4495C71.6836 59.1845 86.2949 41.5974 100.138 30.4088C107.043 24.8281 114.009 20.6343 120.624 18.5062C127.239 16.378 134.153 16.1382 140.096 19.5509C146.04 22.9636 149.288 29.0376 150.743 35.7988C152.197 42.5596 152.027 50.6556 150.62 59.3925Z" fill="#FFF9E0"/>
</g>
</svg>
