<svg width="200" height="200" viewBox="0 0 200 200" fill="none" xmlns="http://www.w3.org/2000/svg">
<g opacity="0.1" clip-path="url(#clip0_236_229)">
<path d="M178 32C178.492 33.4876 178.985 34.9752 179.492 36.5078C182.259 42.5672 185.177 45.484 190.125 49.875C195.668 55.1772 197.812 57.3902 200.125 64.875C200 70 200 70 198 72C186.581 73.1711 176.686 69.548 166 66C164.259 73.1571 164.01 78.8426 165 86.125C166.246 95.3126 166.246 95.3126 164.617 99.8672C163.604 106.649 167.427 110.443 171.125 116C172.611 118.308 174.09 120.62 175.562 122.938C176.308 124.108 177.053 125.278 177.82 126.484C181.16 131.871 184.18 137.389 187.125 143C188.614 145.815 188.614 145.815 190.133 148.688C192.263 154.747 191.836 157.93 190 164C186.04 164 182.08 164 178 164C176.909 161.685 175.819 159.37 174.695 156.984C164.235 134.924 164.235 134.924 146.086 119.234C141.068 117.718 139.016 118.578 134 120C128.848 120.242 123.776 120.376 118.625 120.375C116.477 120.39 116.477 120.39 114.285 120.405C106.363 120.364 99.5322 119.664 92 117.25C86.7197 115.813 84.9456 115.489 80.0703 118.125C77.3771 120.258 74.7503 122.477 72.1875 124.766C67.5181 128.372 63.7779 129.447 58.125 131C46.385 135.112 41.9466 143.899 36.438 154.449C34.4062 158.156 34.4062 158.156 30 164C23.4688 164.844 23.4688 164.844 18 164C15.0487 154.903 18.259 148.634 22 140.25C22.632 138.811 23.2639 137.372 23.915 135.89C28.9073 125.113 34.0755 118.749 44 112C46.2963 107.407 46.6154 103.846 47.125 98.75C47.3764 96.2982 47.3764 96.2982 47.6328 93.7969C47.8146 91.9174 47.8146 91.9174 48 90C42.787 91.8825 38.6298 93.4539 34.4141 97.1094C28.6314 100.896 24.7332 100.735 17.875 100.625C15.7893 100.617 13.7036 100.61 11.5547 100.602C6 100 6 100 0 96C1.13695 95.3941 2.27391 94.7883 3.44531 94.1641C11.1288 89.9952 18.4375 85.8353 25.375 80.5C33.9397 74.2389 40.7625 73.4976 51.25 75.125C57.6662 76.6308 57.6662 76.6308 61.5078 74.0781C67.9539 71.0961 73.5607 71.5469 80.625 71.625C84.4496 71.6443 84.4496 71.6443 88.3516 71.6641C96 72 96 72 103.211 73.3984C111.622 74.1437 115.059 72.7267 122 68C126.549 62.5957 126.549 62.5957 130.5 56.375C143.293 38.6665 155.875 29.8589 178 32Z" fill="#FFF9E0"/>
<path d="M144 124C142.41 133.248 140.899 141.333 133.805 147.859C129.296 150.807 124.746 153.455 120 156C118.02 157.32 116.04 158.64 114 160C108.625 160.25 108.625 160.25 104 160C103 154.75 103 154.75 104 148C108.787 143.147 114.073 139.356 120 136C121.32 136 122.64 136 124 136C124 132.7 124 129.4 124 126C130.83 124.439 137.008 123.906 144 124Z" fill="#FFF9E0"/>
<path d="M90.7188 120.594C92.343 121.29 92.343 121.29 94 122C91.2569 127.908 88.0227 132.88 84 138C84.5775 139.039 85.155 140.078 85.75 141.148C93.1248 155.002 93.1248 155.002 92 164C86.5469 164.727 86.5469 164.727 80 164C75.3281 158.961 75.3281 158.961 71.25 152.375C69.8733 150.217 68.4966 148.059 67.0781 145.836C64 140 64 140 64 134C68.5312 130.281 68.5312 130.281 74.5 126.5C77.4236 124.597 77.4236 124.597 80.4062 122.656C86 120 86 120 90.7188 120.594Z" fill="#FFF9E0"/>
</g>
<defs>
<clipPath id="clip0_236_229">
<rect width="200" height="200" fill="white"/>
</clipPath>
</defs>
</svg>
