<svg width="199" height="199" viewBox="0 0 199 199" fill="none" xmlns="http://www.w3.org/2000/svg">
<g opacity="0.1">
<path d="M85.57 15.92C92.6056 19.8888 97.014 25.1259 101.49 31.84C102.306 30.8575 103.121 29.875 103.962 28.8628C105.034 27.5879 106.106 26.3129 107.211 24.9994C108.273 23.7296 109.335 22.4598 110.429 21.1515C115.08 16.1275 118.857 15.4357 125.494 15.0494C136.728 15.1404 145.262 20.1059 153.23 27.86C154.847 32.1198 154.847 32.1198 155.22 35.82C151.159 39.8813 143.74 39.8602 138.181 40.9194C136.766 41.1951 135.351 41.4709 133.894 41.755C130.39 42.4369 126.885 43.1093 123.38 43.78C124.965 43.8313 126.551 43.8826 128.184 43.9355C149.561 45.0797 149.561 45.0797 159.2 53.73C166.743 62.3135 167.585 69.8358 167.494 80.8671C167.021 87.5279 165.328 93.1907 163.18 99.5C156.322 98.9436 153.684 97.9649 148.745 93.017C147.229 91.1341 145.713 89.2512 144.151 87.3113C133.926 75.4823 123.493 68.7598 109.45 61.69C109.554 64.1526 109.554 64.1526 109.66 66.665C110.213 90.2645 108.978 121.018 95.52 141.29C90.8025 144.773 87.424 145.697 81.59 147.26C79.7276 147.806 79.7276 147.806 77.8277 148.364C72.8497 149.415 68.2659 149.441 63.1825 149.374C60.5198 149.347 60.5198 149.347 57.8033 149.32C56.4591 149.297 55.1149 149.274 53.73 149.25C56.3062 143.711 59.1773 139.273 63.0581 134.574C77.2286 115.83 91.54 87.8892 91.54 63.68C75.6216 71.5075 62.0157 81.3826 51.1181 95.52C50.01 96.8334 48.9018 98.1468 47.76 99.5C45.1332 99.5 42.5064 99.5 39.8 99.5C35.2788 83.3933 33.3852 71.0805 41.79 55.72C49.5749 47.2483 58.5912 45.2192 69.65 43.78C72.9335 43.78 76.217 43.78 79.6 43.78C69.7495 41.8099 59.899 39.8398 49.75 37.81C49.75 27.86 49.75 27.86 53.0382 24.2764C63.6841 17.2338 72.6932 12.6282 85.57 15.92Z" fill="#FFF9E0"/>
<path d="M131.869 138.826C147.129 138.255 161.853 143.024 174.498 151.613C180.191 158.537 180.259 162.462 179.908 171.163C179.1 175.12 179.1 175.12 175.12 179.1C170.288 179.494 165.682 179.643 160.848 179.615C159.379 179.622 157.909 179.629 156.395 179.636C151.526 179.654 146.657 179.642 141.787 179.629C138.412 179.631 135.036 179.635 131.661 179.64C124.581 179.646 117.501 179.637 110.422 179.619C101.334 179.596 92.2463 179.609 83.1584 179.633C76.1864 179.647 69.2146 179.643 62.2426 179.633C58.8912 179.63 55.5397 179.633 52.1882 179.642C47.5092 179.653 42.831 179.637 38.152 179.615C36.7584 179.623 35.3647 179.631 33.9289 179.639C24.3348 179.555 24.3348 179.555 19.9 175.12C19.5113 169.072 19.5113 169.072 19.6512 161.936C19.6872 159.571 19.7231 157.206 19.7601 154.769C19.8062 152.948 19.8524 151.127 19.9 149.25C28.9123 148.821 35.2956 150.384 43.78 153.23C65.9917 155.87 84.1103 151.503 104.918 144.096C113.809 140.989 122.525 139.808 131.869 138.826Z" fill="#FFF9E0"/>
</g>
</svg>
