<svg width="200" height="201" viewBox="0 0 200 201" fill="none" xmlns="http://www.w3.org/2000/svg">
<g opacity="0.1">
<path d="M54 30.4988C60.5 34.3738 60.5 34.3738 66 38.4988C71.4567 41.2272 74.3281 39.8857 80.25 38.6238C94.6884 35.871 106.082 36.0706 120.375 38.9988C129.717 40.8649 129.717 40.8649 138.25 36.8738C140.106 34.7082 140.106 34.7082 142 32.4988C147.732 29.6327 151.626 29.8859 158 30.4988C166.57 35.0359 172.528 39.3085 176 48.4988C176.827 57.1088 176.069 63.7981 170.727 70.7723C167.28 74.2185 163.782 77.4277 160 80.4988C160.82 82.4788 161.64 84.4588 162.484 86.4988C170.295 105.544 176.216 121.654 176 142.499C174.922 143.052 173.844 143.606 172.734 144.176C167.775 146.731 162.825 149.302 157.875 151.874C156.18 152.744 154.485 153.614 152.738 154.511C144.869 158.612 137.348 162.761 130.172 167.999C117.946 176.913 104.686 177.956 90 176.499C81.5251 174.659 74.4408 172.522 67.7031 166.936C59.8285 160.809 51.2316 156.543 42.375 151.999C40.6077 151.081 38.8404 150.163 37.0195 149.218C32.6847 146.968 28.3448 144.729 24 142.499C23.6536 131.616 24.4551 122.904 27.625 112.374C28.3469 109.963 29.0688 107.553 29.8125 105.069C31.5213 99.9365 33.3438 95.1387 35.625 90.2488C38.2704 84.881 38.2704 84.881 38 80.2488C36.012 75.9882 36.012 75.9882 31 72.1238C25.1147 65.5028 24.1055 61.581 23.6016 52.9285C24.2518 45.6991 27.2134 41.7893 32 36.4988C39.3321 30.7103 44.7262 29.174 54 30.4988ZM150 44.4988C148.474 46.5613 146.947 48.6238 145.375 50.7488C142.008 54.0926 142.008 54.0926 138 56.4988C132.541 56.3869 127.813 55.1405 122.516 53.827C114.968 52.2885 107.67 51.9835 100 51.9988C97.9497 51.9971 97.9497 51.9971 95.8579 51.9954C87.4517 52.115 79.789 53.1957 71.625 55.1238C66.3984 56.2801 66.3984 56.2801 62 56.4988C56.25 51.6238 56.25 51.6238 52 46.4988C46.5912 45.98 46.5912 45.98 42 48.4988C39.688 52.5281 39.688 52.5281 38 56.4988C39.3226 57.659 40.6452 58.8191 42.0078 60.0145C44.5408 62.358 44.5408 62.358 47.125 64.7488C49.6657 67.0459 49.6657 67.0459 52.2578 69.3895C56 74.4988 56 74.4988 55.8594 80.4285C54.0299 86.4013 51.8682 91.7653 49.125 97.3738C42.9789 110.483 40 119.704 40 134.499C47.26 137.799 54.52 141.099 62 144.499C62.6291 142.738 63.2581 140.977 63.9062 139.163C64.7622 136.84 65.6181 134.517 66.5 132.124C67.3353 129.827 68.1706 127.53 69.0312 125.163C71.9586 118.592 75.2647 113.872 80 108.499C77.525 107.447 77.525 107.447 75 106.374C73.35 105.095 71.7 103.816 70 102.499C69.375 95.1238 69.375 95.1238 70 88.4988C75.28 88.4988 80.56 88.4988 86 88.4988C86.25 101.999 86.25 101.999 84 106.499C93.9 106.499 103.8 106.499 114 106.499C114 101.219 114 95.9388 114 90.4988C125.5 88.4988 125.5 88.4988 130 88.4988C130.625 94.9988 130.625 94.9988 130 102.499C125 107.374 125 107.374 120 110.499C121.485 112.025 122.97 113.551 124.5 115.124C131.803 123.759 134.502 133.875 138 144.499C145.26 141.199 152.52 137.899 160 134.499C159.114 117.083 154.291 99.7839 144.422 85.2176C142 80.4988 142 80.4988 143.109 76.4051C146.493 71.8323 150.162 67.9554 154.25 63.9988C155.699 62.586 157.148 61.1732 158.641 59.7176C159.749 58.6554 160.858 57.5932 162 56.4988C158.961 49.7639 156.958 47.282 150 44.4988ZM85.125 124.374C78.0401 137.947 78.0401 137.947 76.4219 152.827C77.9223 157.378 77.9223 157.378 84.875 160.124C96.9955 164.113 108.898 163.05 120.25 157.374C121.487 156.425 122.725 155.476 124 154.499C121.99 141.12 119.862 130.36 110 120.499C100.701 119.313 92.664 118.381 85.125 124.374Z" fill="#FFF9E0"/>
<path d="M84 130.5C94.56 130.5 105.12 130.5 116 130.5C112 140.5 112 140.5 110 144.5C103.242 145.071 96.7365 145.4 90 144.5C85.6364 139.623 84 137.036 84 130.5Z" fill="#FFF9E0"/>
</g>
</svg>
