<svg width="24" height="25" viewBox="0 0 24 25" fill="none" xmlns="http://www.w3.org/2000/svg">
<path d="M5.70711 11.7929C5.31658 11.4024 4.68342 11.4024 4.29289 11.7929C3.90237 12.1834 3.90237 12.8166 4.29289 13.2071L5.70711 11.7929ZM10 17.5L9.29289 18.2071C9.68342 18.5976 10.3166 18.5976 10.7071 18.2071L10 17.5ZM20.7071 8.20711C21.0976 7.81658 21.0976 7.18342 20.7071 6.79289C20.3166 6.40237 19.6834 6.40237 19.2929 6.79289L20.7071 8.20711ZM4.29289 13.2071L9.29289 18.2071L10.7071 16.7929L5.70711 11.7929L4.29289 13.2071ZM10.7071 18.2071L20.7071 8.20711L19.2929 6.79289L9.29289 16.7929L10.7071 18.2071Z" fill="#070707"/>
</svg>
