<svg width="22" height="24" viewBox="0 0 22 24" fill="none" xmlns="http://www.w3.org/2000/svg">
<mask id="mask0" mask-type="alpha" maskUnits="userSpaceOnUse" x="0" y="0" width="22" height="24">
<path fill-rule="evenodd" clip-rule="evenodd" d="M12.8861 2.67094L17.7844 5.43794C17.9223 5.295 18.0835 5.16879 18.2662 5.06493C19.2821 4.49356 20.5779 4.83281 21.1679 5.82675C21.7519 6.82069 21.4052 8.08841 20.3893 8.66573C20.2079 8.76774 20.0174 8.84072 19.8235 8.88613V14.4223C20.0153 14.4678 20.2037 14.5403 20.3832 14.6413C21.4052 15.2186 21.7519 16.4863 21.1619 17.4803C20.5779 18.4742 19.276 18.8134 18.2601 18.2421C18.0579 18.1283 17.8822 17.9867 17.735 17.8251L12.8665 20.5752C12.9361 20.7809 12.9738 21.001 12.9738 21.2298C12.9738 22.3726 12.0248 23.307 10.8507 23.307C9.67664 23.307 8.72765 22.3785 8.72765 21.2298C8.72765 21.0257 8.75764 20.8284 8.81354 20.6422L3.91648 17.8759C3.78002 18.016 3.62114 18.1399 3.44129 18.2421C2.4193 18.8134 1.12356 18.4742 0.539568 17.4803C-0.0444263 16.4863 0.30232 15.2186 1.31823 14.6413C1.49785 14.5403 1.68622 14.4677 1.87789 14.4222V8.88613C1.684 8.84072 1.49352 8.76774 1.31214 8.66573C0.296237 8.09436 -0.0505096 6.82069 0.533485 5.82675C1.11748 4.83281 2.4193 4.49356 3.43521 5.06493C3.61698 5.16823 3.77733 5.29363 3.91476 5.43561L8.81445 2.66786C8.75796 2.48069 8.72765 2.28244 8.72765 2.07716C8.72765 0.928471 9.67664 0 10.8507 0C12.0248 0 12.9738 0.928471 12.9738 2.07716C12.9738 2.28356 12.9431 2.48286 12.8861 2.67094ZM12.3757 3.52346L17.2857 6.29706C17.1339 6.81859 17.1897 7.39687 17.4876 7.90391C17.7864 8.4126 18.2733 8.7498 18.8137 8.88122V14.4243C18.7862 14.4309 18.7588 14.4381 18.7315 14.4458L12.3187 3.57887C12.338 3.56075 12.3571 3.54228 12.3757 3.52346ZM9.38408 3.58012L2.97135 14.4468C2.94362 14.4389 2.91574 14.4316 2.88771 14.4248V8.88122C3.42808 8.7498 3.91498 8.4126 4.21386 7.90391C4.51236 7.39587 4.5677 6.8163 4.4148 6.29396L9.32345 3.52115C9.34325 3.5412 9.36347 3.56086 9.38408 3.58012ZM11.4439 4.07242L17.8552 14.9367C17.7117 15.0705 17.5853 15.2265 17.4815 15.4031C17.3783 15.5787 17.3042 15.763 17.2577 15.9507H4.44387C4.39736 15.7631 4.3232 15.5788 4.21995 15.4031C4.11576 15.2276 3.98956 15.0725 3.84679 14.9392L10.2593 4.07292C10.447 4.12592 10.6454 4.15431 10.8507 4.15431C11.0567 4.15431 11.2557 4.12574 11.4439 4.07242ZM12.4208 19.8305L17.2989 17.0749C17.2843 17.0299 17.2712 16.9845 17.2597 16.9386H4.44116C4.43436 16.9656 4.42701 16.9924 4.41913 17.019L9.32121 19.7881C9.70719 19.3962 10.2494 19.1527 10.8507 19.1527C11.4734 19.1527 12.0327 19.4138 12.4208 19.8305Z" fill="#E535AB"/>
</mask>
<g mask="url(#mask0)">
<rect x="0.335938" width="21.0689" height="23.3359" fill="#7F7F7F"/>
</g>
</svg>
