<svg width="25" height="25" viewBox="0 0 25 25" fill="none" xmlns="http://www.w3.org/2000/svg">
<g clip-path="url(#clip0)">
<path d="M0.390625 0.782227H24.2422V24.1181H0.390625V0.782227Z" fill="#7F7F7F"/>
<path d="M6.6641 20.2829L8.48939 19.2021C8.84153 19.813 9.16186 20.3298 9.93022 20.3298C10.6667 20.3298 11.1311 20.0479 11.1311 18.9515V11.4951H13.3725V18.9825C13.3725 21.2538 12.0117 22.2877 10.0263 22.2877C8.23323 22.2877 7.19239 21.3791 6.66406 20.2827" fill="#1F2632"/>
<path d="M14.5859 20.0482L16.411 19.0144C16.8914 19.782 17.5159 20.3459 18.6205 20.3459C19.5493 20.3459 20.1415 19.8916 20.1415 19.265C20.1415 18.5131 19.5331 18.2468 18.5084 17.8083L17.9482 17.5732C16.331 16.8998 15.2583 16.0539 15.2583 14.2681C15.2583 12.6233 16.5391 11.3701 18.5405 11.3701C19.9655 11.3701 20.9902 11.8558 21.7266 13.1246L19.9814 14.2211C19.5971 13.5475 19.181 13.2813 18.5406 13.2813C17.8841 13.2813 17.4678 13.6886 17.4678 14.2211C17.4678 14.879 17.8841 15.1453 18.8447 15.5526L19.405 15.7876C21.3103 16.5865 22.383 17.401 22.383 19.2337C22.383 21.2075 20.798 22.2883 18.6686 22.2883C16.5872 22.2883 15.2423 21.3171 14.586 20.0482" fill="#1F2632"/>
</g>
<defs>
<clipPath id="clip0">
<rect width="23.8516" height="23.3359" fill="white" transform="translate(0.390625 0.782227)"/>
</clipPath>
</defs>
</svg>
