<svg width="84" height="25" viewBox="0 0 84 25" fill="none" xmlns="http://www.w3.org/2000/svg">
<mask id="mask0" mask-type="alpha" maskUnits="userSpaceOnUse" x="0" y="0" width="84" height="25">
<path fill-rule="evenodd" clip-rule="evenodd" d="M77.9211 10.4459C77.8458 10.4607 77.7705 10.623 77.7705 10.7115C77.7554 11.3014 77.7403 12.865 77.7403 13.9269C77.7403 13.9564 77.7854 14.0154 77.8307 14.0154C78.0568 14.0301 78.5996 14.0449 79.0669 14.0449C79.7152 14.0449 80.092 13.9564 80.3032 13.868C80.8458 13.6025 81.1021 13.0271 81.1021 12.3929C81.1021 10.9622 80.077 10.4164 78.5543 10.4164C78.4488 10.4018 78.1474 10.4018 77.9211 10.4459ZM81.8108 17.0391C81.8108 15.5789 80.7101 14.7676 78.7202 14.7676C78.6298 14.7676 77.9966 14.7529 77.8458 14.7824C77.8005 14.7972 77.7403 14.8267 77.7403 14.871C77.7403 15.9182 77.7252 17.5849 77.7705 18.2338C77.8005 18.5141 78.0117 18.9124 78.268 19.0304C78.5392 19.1779 79.1574 19.2073 79.5795 19.2073C80.7705 19.2073 81.8108 18.5584 81.8108 17.0391ZM74.8458 9.63477C74.9964 9.63477 75.4488 9.67893 76.6096 9.67893C77.7101 9.67893 78.5845 9.64953 79.6549 9.64953C80.9664 9.64953 82.7756 10.1067 82.7756 12.0241C82.7756 12.9682 82.0971 13.7205 81.2076 14.0892C81.1625 14.104 81.1625 14.1334 81.2076 14.1481C82.474 14.4579 83.5897 15.225 83.5897 16.6704C83.5897 18.0864 82.6852 18.9861 81.3735 19.5466C80.5744 19.8859 79.5795 20.0039 78.5694 20.0039C77.8005 20.0039 75.7352 19.9154 74.5895 19.9449C74.4689 19.9006 74.695 19.3696 74.8005 19.2811C75.0719 19.2664 75.2829 19.2516 75.5694 19.1631C75.9764 19.0599 76.0216 18.9419 76.0819 18.3372C76.1121 17.8209 76.1121 15.9918 76.1121 14.6939C76.1121 12.9091 76.1272 11.6997 76.1121 11.1097C76.097 10.6525 75.9311 10.505 75.5995 10.4164C75.3432 10.3723 74.9211 10.3132 74.5744 10.269C74.4989 10.1952 74.7552 9.69369 74.8458 9.63477ZM66.1469 18.8092C66.5089 19.0893 67.2174 19.2073 67.8505 19.2073C68.6647 19.2073 69.4787 19.0599 70.2627 18.3666C71.0617 17.6586 71.6195 16.5672 71.6195 14.8267C71.6195 13.1599 70.9712 11.8029 69.6446 11.0065C68.8908 10.5492 67.9259 10.3575 66.8103 10.3575C66.4787 10.3575 66.162 10.3723 65.9661 10.4607C65.9208 10.4902 65.8153 10.623 65.8153 10.6967C65.7851 10.9917 65.7851 13.2631 65.7851 14.5907C65.7851 15.9625 65.7851 17.8799 65.8153 18.1011C65.8153 18.3224 65.9208 18.6616 66.1469 18.8092ZM62.7247 9.63477C63.0112 9.63477 64.1117 9.67893 64.6394 9.67893C65.5892 9.67893 66.2675 9.63477 68.0616 9.63477C69.5691 9.63477 70.8355 10.033 71.7401 10.7852C72.8406 11.7145 73.4135 12.9977 73.4135 14.5612C73.4135 16.7884 72.3732 18.0717 71.333 18.8092C70.2929 19.5614 68.9359 20.0039 67.0064 20.0039C65.9812 20.0039 64.2173 19.9743 62.7549 19.9596H62.7398C62.6645 19.8269 62.8604 19.3107 62.981 19.2959C63.373 19.2516 63.4785 19.2368 63.6746 19.1631C63.9911 19.0451 64.0515 18.8829 64.0967 18.3372C64.1419 17.3194 64.1268 16.0952 64.1268 14.7087C64.1268 13.7205 64.1419 11.7882 64.1117 11.1687C64.0665 10.6525 63.8404 10.5198 63.3881 10.4312C63.162 10.387 62.8604 10.328 62.4384 10.2838C62.378 10.1804 62.6494 9.72323 62.7247 9.63477Z" fill="#8E714E"/>
<path fill-rule="evenodd" clip-rule="evenodd" d="M44.4841 19.3843C44.1072 19.34 43.8358 19.2811 43.5041 19.1336C43.4589 19.104 43.3835 18.9567 43.3835 18.8976C43.3533 18.3813 43.3533 16.9064 43.3533 15.9181C43.3533 15.1216 43.2177 14.4284 42.8709 13.9417C42.4638 13.3811 41.8759 13.0566 41.1221 13.0566C40.4587 13.0566 39.5693 13.4992 38.8306 14.1187C38.8155 14.1333 38.6949 14.2367 38.71 14.0744C38.71 13.9121 38.7402 13.5877 38.7553 13.3665C38.7704 13.1599 38.6498 13.0566 38.6498 13.0566C38.1672 13.2926 36.8104 13.6024 36.3129 13.6466C35.9511 13.7204 35.8607 14.0596 36.2376 14.1776H36.2527C36.6596 14.2956 36.931 14.4284 37.142 14.5611C37.2928 14.6791 37.2777 14.8414 37.2777 14.9742C37.2928 16.0804 37.2928 17.7766 37.2477 18.7059C37.2326 19.0747 37.1271 19.2073 36.8557 19.2663L36.8858 19.2516C36.6747 19.2959 36.5089 19.34 36.2526 19.3696C36.1622 19.458 36.1622 19.9301 36.2526 20.0334C36.4184 20.0334 37.2928 19.9891 38.0166 19.9891C39.0116 19.9891 39.5241 20.0334 39.7804 20.0334C39.8859 19.9154 39.9161 19.4728 39.8558 19.3696C39.5693 19.3548 39.3583 19.3254 39.1623 19.2663C38.891 19.2073 38.8155 19.0747 38.8004 18.7648C38.7704 17.9831 38.7704 16.3312 38.7704 15.2102C38.7704 14.9004 38.8608 14.7528 38.9512 14.6644C39.2979 14.3695 39.8558 14.1629 40.3532 14.1629C40.8356 14.1629 41.1523 14.3104 41.3935 14.5022C41.7251 14.7676 41.8306 15.1511 41.8759 15.4314C41.9512 16.0656 41.9212 17.3194 41.9212 18.4109C41.9212 19.0008 41.8759 19.1483 41.6498 19.222C41.5443 19.2663 41.2729 19.3254 40.9562 19.3548C40.8507 19.458 40.8809 19.9154 40.9562 20.0186C41.3935 20.0186 41.9061 19.9743 42.6599 19.9743C43.5945 19.9743 44.1976 20.0186 44.4388 20.0186C44.5141 19.9301 44.5443 19.5023 44.484 19.3843H44.4841ZM48.6601 13.75C47.861 13.75 47.3635 14.3547 47.3635 15.2986C47.3635 16.2573 47.8007 17.3636 49.037 17.3636C49.248 17.3636 49.64 17.2751 49.8208 17.0686C50.1073 16.8031 50.3034 16.2721 50.3034 15.7117C50.3034 14.4874 49.6851 13.75 48.6601 13.75ZM48.5544 20.2693C48.253 20.2693 48.0419 20.3578 47.9063 20.4316C47.273 20.8298 46.9867 21.2133 46.9867 21.6706C46.9867 22.0983 47.1524 22.4375 47.5143 22.7325C47.9515 23.1013 48.5544 23.2783 49.3233 23.2783C50.8611 23.2783 51.5395 22.467 51.5395 21.6706C51.5395 21.11 51.2531 20.7413 50.6651 20.5349C50.243 20.3578 49.4741 20.2693 48.5544 20.2693ZM48.6601 24.1043C47.7404 24.1043 47.0771 23.9125 46.5043 23.4848C45.9464 23.0718 45.7052 22.4523 45.7052 22.0246C45.7052 21.9066 45.7354 21.582 46.0068 21.2871C46.1725 21.11 46.5343 20.7708 47.3937 20.1956C47.4238 20.1809 47.4389 20.1661 47.4389 20.1366C47.4389 20.107 47.4087 20.0775 47.3786 20.0629C46.67 19.7974 46.459 19.3696 46.3986 19.1336V19.104C46.3837 19.0156 46.3535 18.9271 46.4892 18.8385C46.5947 18.7648 46.7454 18.6764 46.9112 18.5731C47.1675 18.4256 47.4389 18.2633 47.6047 18.1306C47.6349 18.101 47.6349 18.0716 47.6349 18.0421C47.6349 18.0126 47.6047 17.9831 47.5746 17.9684C46.5193 17.6291 45.9917 16.8621 45.9917 15.7117C45.9917 14.9594 46.3384 14.2809 46.9565 13.8532C47.3786 13.5286 48.4338 13.1305 49.1274 13.1305H49.1727C49.8812 13.1451 50.2732 13.2926 50.8309 13.4844C51.1325 13.5877 51.4189 13.6318 51.8109 13.6318C52.3988 13.6318 52.6551 13.4549 52.8661 13.2485C52.8812 13.2779 52.9114 13.3517 52.9265 13.5434C52.9416 13.7352 52.8812 14.0153 52.7304 14.2219C52.6098 14.3841 52.3386 14.5022 52.0672 14.5022H51.9917C51.7204 14.4727 51.5998 14.4432 51.5998 14.4432L51.5395 14.4727C51.5244 14.5022 51.5395 14.5316 51.5546 14.5759L51.5697 14.6054C51.5998 14.7382 51.6601 15.1363 51.6601 15.2397C51.6601 16.4492 51.1626 16.98 50.635 17.3783C50.1224 17.7471 49.5345 17.9831 48.8711 18.0421C48.856 18.0421 48.7958 18.0421 48.6601 18.0569C48.5846 18.0569 48.4791 18.0716 48.464 18.0716H48.4489C48.3283 18.101 48.0269 18.2486 48.0269 18.4993C48.0269 18.7205 48.1626 18.9861 48.8107 19.0304C48.9464 19.0451 49.0821 19.0451 49.2329 19.0599C50.0922 19.1188 51.1626 19.1926 51.6601 19.3548C52.3535 19.6055 52.7908 20.2103 52.7908 20.9331C52.7908 22.0246 51.9917 23.0424 50.6651 23.6765C50.0169 23.9568 49.3686 24.1043 48.6601 24.1043ZM57.2533 13.8237C56.9366 13.8237 56.6501 13.8974 56.4391 14.0449C55.8512 14.3989 55.5497 15.1069 55.5497 16.1393C55.5497 18.0716 56.5446 19.4286 57.9618 19.4286C58.384 19.4286 58.7156 19.3106 59.002 19.0747C59.4392 18.7205 59.6654 18.0126 59.6654 17.0243C59.6654 15.1069 58.6854 13.8237 57.2533 13.8237ZM57.5247 20.1366C54.9618 20.1366 54.0421 18.2929 54.0421 16.5671C54.0421 15.3577 54.5396 14.4284 55.5346 13.7646C56.2432 13.3369 57.0874 13.1009 57.8412 13.1009C59.801 13.1009 61.173 14.4727 61.173 16.4492C61.173 17.7914 60.6302 18.8533 59.59 19.5023C59.0925 19.8268 58.2332 20.1366 57.5245 20.1366H57.5247ZM30.6596 13.8237C30.3429 13.8237 30.0566 13.8974 29.8454 14.0449C29.2575 14.3989 28.9559 15.1069 28.9559 16.1393C28.9559 18.0716 29.9509 19.4286 31.3681 19.4286C31.7902 19.4286 32.1219 19.3106 32.4083 19.0747C32.8455 18.7205 33.0717 18.0126 33.0717 17.0243C33.0717 15.1069 32.1068 13.8237 30.6596 13.8237ZM30.931 20.1366C28.368 20.1366 27.4484 18.2929 27.4484 16.5671C27.4484 15.3577 27.9459 14.4284 28.9408 13.7646C29.6495 13.3369 30.4937 13.1009 31.2475 13.1009C33.2074 13.1009 34.5793 14.4727 34.5793 16.4492C34.5793 17.7914 34.0365 18.8533 32.9962 19.5023C32.5138 19.8268 31.6546 20.1366 30.931 20.1366ZM13.6993 19.9891C13.6691 19.9449 13.6389 19.8121 13.654 19.6498C13.654 19.5319 13.6842 19.458 13.6993 19.4286C14.0158 19.3843 14.1817 19.34 14.3625 19.2959C14.6641 19.222 14.7847 19.0599 14.7998 18.6911C14.8451 17.8061 14.8451 16.1246 14.83 14.9594V14.9299C14.83 14.7971 14.83 14.6348 14.6641 14.5168C14.4229 14.3695 14.1364 14.2367 13.7595 14.1333C13.6238 14.0892 13.5334 14.0153 13.5485 13.9269C13.5485 13.8384 13.6389 13.7352 13.835 13.7057C14.3325 13.6614 15.6289 13.3517 16.1415 13.1305C16.1717 13.1599 16.2169 13.2485 16.2169 13.3665L16.2019 13.5286C16.1868 13.6909 16.1717 13.8827 16.1717 14.0744C16.1717 14.1333 16.232 14.1776 16.2923 14.1776C16.3225 14.1776 16.3526 14.1629 16.3828 14.1481C17.3476 13.4106 18.222 13.1451 18.6742 13.1451C19.413 13.1451 19.9859 13.4844 20.4231 14.1924C20.4532 14.2367 20.4834 14.2513 20.5286 14.2513C20.5588 14.2513 20.604 14.2367 20.619 14.2072C21.5085 13.5434 22.398 13.1451 22.9859 13.1451C24.388 13.1451 25.2172 14.1629 25.2172 15.8886C25.2172 16.3753 25.2172 17.0096 25.2021 17.5849C25.2021 18.101 25.187 18.5731 25.187 18.9124C25.187 18.9861 25.2925 19.222 25.4584 19.2663C25.6694 19.3696 25.9559 19.4139 26.3328 19.4728H26.3479C26.3781 19.576 26.3177 19.9595 26.2575 20.0334C26.1669 20.0334 26.0312 20.0334 25.8806 20.0186C25.5941 20.0038 25.187 19.9891 24.7348 19.9891C23.8001 19.9891 23.3177 20.0038 22.8502 20.0334C22.8202 19.9154 22.8051 19.5614 22.8502 19.4728C23.1216 19.4286 23.2573 19.3843 23.4232 19.34C23.7247 19.2516 23.8001 19.1188 23.8151 18.7353C23.8151 18.4552 23.8754 16.0656 23.785 15.4903C23.6945 14.9004 23.2422 14.2072 22.2472 14.2072C21.8703 14.2072 21.2824 14.3547 20.7095 14.7824C20.6794 14.8119 20.6492 14.8856 20.6492 14.9299V14.9447C20.7095 15.2543 20.7095 15.6084 20.7095 16.1541V17.1128C20.7095 17.7766 20.6944 18.3961 20.7095 18.8681C20.7095 19.1926 20.9055 19.2663 21.0714 19.3254C21.1618 19.34 21.222 19.3548 21.2975 19.3696C21.4332 19.3991 21.5689 19.4286 21.7799 19.4728C21.8101 19.5319 21.8101 19.7235 21.7648 19.8858C21.7497 19.9743 21.7195 20.0186 21.7046 20.0334C21.192 20.0186 20.6643 20.0038 19.8954 20.0038C19.6693 20.0038 19.2774 20.0186 18.9456 20.0186C18.6742 20.0186 18.4179 20.0334 18.2673 20.0334C18.2522 20.0038 18.222 19.9006 18.222 19.7383C18.222 19.6055 18.2522 19.5023 18.2824 19.4728C18.3577 19.458 18.4179 19.4434 18.4934 19.4434C18.6742 19.4139 18.825 19.3843 18.9758 19.3548C19.2321 19.2811 19.3225 19.1483 19.3376 18.8239C19.3829 18.0864 19.428 15.9772 19.3225 15.4462C19.1417 14.5907 18.6442 14.1629 17.8451 14.1629C17.3778 14.1629 16.7898 14.3841 16.3074 14.7382C16.232 14.7971 16.1717 14.9447 16.1717 15.0774V15.9477C16.1717 17.0096 16.1717 18.3372 16.1868 18.9124C16.2019 19.0893 16.2621 19.2959 16.6089 19.3696C16.6843 19.3843 16.8049 19.4139 16.9556 19.4286L17.227 19.4728C17.2572 19.5614 17.2421 19.9154 17.1817 20.0334C17.031 20.0334 16.8501 20.0186 16.639 20.0186C16.3225 20.0038 15.9154 19.9891 15.4632 19.9891C14.9355 19.9891 14.5586 20.0038 14.257 20.0186C14.046 19.9891 13.8801 19.9891 13.6993 19.9891Z" fill="#F6FBF9"/>
<path fill-rule="evenodd" clip-rule="evenodd" d="M5.76841 23.5292L5.15032 23.3226C5.15032 23.3226 5.22578 20.2399 4.09511 20.0187C3.34133 19.1632 4.21571 -16.2659 6.92927 19.9007C6.92927 19.9007 5.99466 20.3579 5.82878 21.1397C5.64781 21.9067 5.76841 23.5292 5.76841 23.5292Z" fill="white"/>
<path fill-rule="evenodd" clip-rule="evenodd" d="M5.76841 23.5292L5.15032 23.3226C5.15032 23.3226 5.22578 20.2399 4.09511 20.0187C3.34133 19.1632 4.21571 -16.2659 6.92927 19.9007C6.92927 19.9007 5.99466 20.3579 5.82878 21.1397C5.64781 21.9067 5.76841 23.5292 5.76841 23.5292Z" fill="#A6A385"/>
<path fill-rule="evenodd" clip-rule="evenodd" d="M6.10219 20.5493C6.10219 20.5493 11.5144 17.0683 10.248 9.82609C9.02691 4.56047 6.14733 2.83475 5.83081 2.17096C5.4841 1.69899 5.15234 0.873047 5.15234 0.873047L5.37859 15.5195C5.37859 15.5343 4.91114 20.0035 6.10219 20.5493Z" fill="white"/>
<path fill-rule="evenodd" clip-rule="evenodd" d="M6.10219 20.5493C6.10219 20.5493 11.5144 17.0683 10.248 9.82609C9.02691 4.56047 6.14733 2.83475 5.83081 2.17096C5.4841 1.69899 5.15234 0.873047 5.15234 0.873047L5.37859 15.5195C5.37859 15.5343 4.91114 20.0035 6.10219 20.5493Z" fill="#499D4A"/>
<path fill-rule="evenodd" clip-rule="evenodd" d="M4.83487 20.7414C4.83487 20.7414 -0.245688 17.3489 0.0558818 11.3754C0.342218 5.40165 3.93031 2.46648 4.62372 1.93545C5.07607 1.46348 5.09117 1.28642 5.12135 0.814453C5.43787 1.47824 5.37764 10.7411 5.42278 11.8326C5.55847 16.0363 5.18158 19.945 4.83487 20.7414Z" fill="white"/>
<path fill-rule="evenodd" clip-rule="evenodd" d="M4.83487 20.7414C4.83487 20.7414 -0.245688 17.3489 0.0558818 11.3754C0.342218 5.40165 3.93031 2.46648 4.62372 1.93545C5.07607 1.46348 5.09117 1.28642 5.12135 0.814453C5.43787 1.47824 5.37764 10.7411 5.42278 11.8326C5.55847 16.0363 5.18158 19.945 4.83487 20.7414Z" fill="#58AA50"/>
</mask>
<g mask="url(#mask0)">
<rect x="0.0429688" y="0.782227" width="83.4806" height="23.3359" fill="#7F7F7F"/>
</g>
</svg>
