<svg width="41" height="24" viewBox="0 0 41 24" fill="none" xmlns="http://www.w3.org/2000/svg">
<mask id="mask0" mask-type="alpha" maskUnits="userSpaceOnUse" x="0" y="0" width="41" height="24">
<path d="M9.80579 6.08404H17.2598V6.66369H10.4891V11.0263H16.8561V11.6059H10.4891V16.3957H17.3375V16.9753H9.80579V6.08404ZM17.9276 6.08404H18.7196L22.2292 10.8738L25.8164 6.08404L30.6957 0L22.6795 11.3771L26.8103 16.9753H25.9873L22.2292 11.8805L18.4556 16.9753H17.6481L21.8099 11.3771L17.9276 6.08404ZM27.1054 6.66369V6.08404H35.5999V6.66369H31.6865V16.9753H31.0032V6.66369H27.1054ZM0.480469 6.08404H1.33458L13.1122 23.3271L8.2451 16.9753L1.19481 6.90775L1.16376 16.9753H0.480469V6.08404ZM35.531 16.2207C35.3914 16.2207 35.2867 16.1149 35.2867 15.9781C35.2867 15.8414 35.3914 15.7356 35.531 15.7356C35.6723 15.7356 35.7753 15.8414 35.7753 15.9781C35.7753 16.1149 35.6723 16.2207 35.531 16.2207ZM36.2024 15.5825H36.5681C36.5731 15.7763 36.7176 15.9065 36.9304 15.9065C37.168 15.9065 37.3026 15.7665 37.3026 15.5044V13.8437H37.6749V15.506C37.6749 15.9781 37.3957 16.25 36.9337 16.25C36.4999 16.25 36.2024 15.9863 36.2024 15.5825ZM38.1618 15.5614H38.5308C38.5624 15.7844 38.7851 15.9261 39.1058 15.9261C39.4049 15.9261 39.6243 15.7746 39.6243 15.5662C39.6243 15.3871 39.4847 15.2797 39.1673 15.2064L38.8582 15.1332C38.4244 15.0339 38.2267 14.8287 38.2267 14.4836C38.2267 14.0651 38.5757 13.7867 39.0992 13.7867C39.5861 13.7867 39.9417 14.0651 39.9634 14.4608H39.6011C39.5662 14.2442 39.3734 14.1091 39.0942 14.1091C38.8 14.1091 38.6039 14.2475 38.6039 14.4591C38.6039 14.6268 38.7302 14.7229 39.0427 14.7945L39.3069 14.858C39.7988 14.9704 40.0016 15.1657 40.0016 15.519C40.0016 15.9684 39.6459 16.25 39.0776 16.25C38.5457 16.25 38.1884 15.9814 38.1618 15.5614Z" fill="#F6FBF9"/>
</mask>
<g mask="url(#mask0)">
<rect x="0.519531" width="39.3552" height="23.3359" fill="#7F7F7F"/>
</g>
</svg>
