<svg width="40" height="24" viewBox="0 0 40 24" fill="none" xmlns="http://www.w3.org/2000/svg">
<mask id="mask0" mask-type="alpha" maskUnits="userSpaceOnUse" x="0" y="0" width="40" height="24">
<path d="M20.1075 23.2685C19.9758 23.2685 19.8529 23.2341 19.7388 23.174L18.5712 22.4954C18.3956 22.4009 18.4834 22.3666 18.5361 22.3494C18.7731 22.2721 18.817 22.2549 19.0628 22.1175C19.0891 22.1003 19.1243 22.1089 19.1506 22.1261L20.0461 22.65C20.0812 22.6672 20.1251 22.6672 20.1514 22.65L23.6543 20.6659C23.6894 20.6487 23.707 20.6143 23.707 20.5714V16.6117C23.707 16.5688 23.6894 16.5344 23.6543 16.5172L20.1514 14.5417C20.1163 14.5245 20.0724 14.5245 20.0461 14.5417L16.5432 16.5172C16.5081 16.5344 16.4905 16.5774 16.4905 16.6117V20.5714C16.4905 20.6058 16.5081 20.6487 16.5432 20.6659L17.5001 21.207C18.0181 21.4647 18.3429 21.1641 18.3429 20.8634V16.9553C18.3429 16.9037 18.3868 16.8522 18.4483 16.8522H18.896C18.9487 16.8522 19.0014 16.8952 19.0014 16.9553V20.8634C19.0014 21.542 18.6239 21.9371 17.9654 21.9371C17.7635 21.9371 17.6055 21.9371 17.1577 21.7224L16.2359 21.207C16.0077 21.0782 15.8672 20.8377 15.8672 20.58V16.6203C15.8672 16.3626 16.0077 16.1221 16.2359 15.9933L19.7388 14.0091C19.9583 13.8889 20.2568 13.8889 20.4763 14.0091L23.9792 15.9933C24.2074 16.1221 24.3479 16.3626 24.3479 16.6203V20.58C24.3479 20.8377 24.2074 21.0782 23.9792 21.207L20.4763 23.1912C20.3621 23.2427 20.2304 23.2685 20.1075 23.2685ZM21.1874 20.5456C19.651 20.5456 19.335 19.8585 19.335 19.2744C19.335 19.2229 19.3789 19.1713 19.4403 19.1713H19.8968C19.9495 19.1713 19.9934 19.2057 19.9934 19.2572C20.0636 19.7125 20.2656 19.9358 21.1962 19.9358C21.9336 19.9358 22.2497 19.7726 22.2497 19.3861C22.2497 19.1627 22.1619 18.9995 21.0118 18.8879C20.0549 18.7934 19.4579 18.5873 19.4579 17.84C19.4579 17.1442 20.0549 16.732 21.0557 16.732C22.1794 16.732 22.7325 17.1099 22.8027 17.9345C22.8027 17.9602 22.794 17.986 22.7764 18.0118C22.7588 18.029 22.7325 18.0461 22.7062 18.0461H22.2497C22.2058 18.0461 22.1619 18.0118 22.1531 17.9688C22.0477 17.4964 21.7756 17.3418 21.0557 17.3418C20.248 17.3418 20.1514 17.6167 20.1514 17.8228C20.1514 18.0719 20.2656 18.1492 21.3542 18.2866C22.434 18.4241 22.9432 18.6216 22.9432 19.3603C22.9344 20.1162 22.3023 20.5456 21.1874 20.5456Z" fill="#539E43"/>
<path d="M9.23866 7.78191C9.23866 7.6273 9.15087 7.48128 9.01041 7.40398L5.28803 5.30817C5.22658 5.27381 5.15634 5.25664 5.08611 5.24805H5.05099C4.98076 5.24805 4.91053 5.27381 4.84907 5.30817L1.1267 7.40398C0.986229 7.48128 0.898438 7.6273 0.898438 7.78191L0.907217 13.4165C0.907217 13.4938 0.951113 13.5711 1.02135 13.6055C1.09158 13.6484 1.17937 13.6484 1.24083 13.6055L3.45318 12.3686C3.59365 12.2913 3.68144 12.1453 3.68144 11.9907V9.35376C3.68144 9.19915 3.76923 9.05313 3.9097 8.97583L4.84907 8.44329C4.9193 8.40034 4.99832 8.38316 5.07733 8.38316C5.15634 8.38316 5.23536 8.40034 5.29681 8.44329L6.23618 8.97583C6.37665 9.05313 6.46444 9.19915 6.46444 9.35376V11.9907C6.46444 12.1453 6.55223 12.2913 6.6927 12.3686L8.90506 13.6055C8.97529 13.6484 9.06308 13.6484 9.13332 13.6055C9.20355 13.5711 9.24744 13.4938 9.24744 13.4165L9.23866 7.78191Z" fill="#333333"/>
<path d="M27.1301 0.0257681C27.0598 -0.00858936 26.9721 -0.00858936 26.9106 0.0257681C26.8404 0.0687149 26.7965 0.13743 26.7965 0.214734V5.79782C26.7965 5.84935 26.7701 5.90089 26.7175 5.93525C26.6648 5.96101 26.6121 5.96101 26.5594 5.93525L25.6288 5.4113C25.4884 5.33399 25.3216 5.33399 25.1811 5.4113L21.4587 7.51569C21.3183 7.59299 21.2305 7.73901 21.2305 7.89362V12.0938C21.2305 12.2484 21.3183 12.3944 21.4587 12.4717L25.1811 14.5761C25.3216 14.6534 25.4884 14.6534 25.6288 14.5761L29.3512 12.4717C29.4917 12.3944 29.5795 12.2484 29.5795 12.0938V1.62339C29.5795 1.46019 29.4917 1.31417 29.3512 1.23687L27.1301 0.0257681ZM26.7877 10.7109C26.7877 10.7539 26.7701 10.7882 26.735 10.8054L25.462 11.5269C25.4269 11.5441 25.383 11.5441 25.3479 11.5269L24.0749 10.8054C24.0398 10.7882 24.0222 10.7453 24.0222 10.7109V9.26792C24.0222 9.22497 24.0398 9.19061 24.0749 9.17343L25.3479 8.45193C25.383 8.43475 25.4269 8.43475 25.462 8.45193L26.735 9.17343C26.7701 9.19061 26.7877 9.23356 26.7877 9.26792V10.7109Z" fill="#333333"/>
<path d="M39.5202 9.23354C39.6607 9.15623 39.7397 9.01021 39.7397 8.85561V7.83347C39.7397 7.67886 39.6519 7.53284 39.5202 7.45554L35.8242 5.35974C35.6837 5.28243 35.5169 5.28243 35.3764 5.35974L31.654 7.46413C31.5136 7.54143 31.4258 7.68745 31.4258 7.84206V12.0423C31.4258 12.1969 31.5136 12.3429 31.654 12.4202L35.3501 14.4816C35.4905 14.5589 35.6573 14.5589 35.789 14.4816L38.0277 13.2619C38.098 13.2276 38.1419 13.1503 38.1419 13.073C38.1419 12.9957 38.098 12.9184 38.0277 12.884L34.2878 10.7796C34.2176 10.7367 34.1737 10.668 34.1737 10.5907V9.27648C34.1737 9.19918 34.2176 9.12188 34.2878 9.08752L35.4554 8.43473C35.5257 8.39178 35.6135 8.39178 35.6837 8.43473L36.8513 9.08752C36.9216 9.13046 36.9654 9.19918 36.9654 9.27648V10.3072C36.9654 10.3845 37.0093 10.4618 37.0796 10.4962C37.1498 10.5391 37.2376 10.5391 37.3078 10.4962L39.5202 9.23354Z" fill="#333333"/>
<path d="M35.5441 9.03632C35.5704 9.01914 35.6055 9.01914 35.6319 9.03632L36.343 9.44002C36.3693 9.4572 36.3869 9.48297 36.3869 9.51733V10.3247C36.3869 10.3591 36.3693 10.3849 36.343 10.402L35.6319 10.8057C35.6055 10.8229 35.5704 10.8229 35.5441 10.8057L34.833 10.402C34.8066 10.3849 34.7891 10.3591 34.7891 10.3247V9.51733C34.7891 9.48297 34.8066 9.4572 34.833 9.44002L35.5441 9.03632Z" fill="#539E43"/>
<mask id="mask1" maskUnits="userSpaceOnUse" x="11" y="5" width="9" height="10">
<path d="M15.4648 5.37731C15.3243 5.30001 15.1575 5.30001 15.0171 5.37731L11.321 7.46453C11.1806 7.54183 11.1016 7.68785 11.1016 7.84246V12.0255C11.1016 12.1801 11.1894 12.3261 11.321 12.4034L15.0171 14.4906C15.1575 14.5679 15.3243 14.5679 15.4648 14.4906L19.1609 12.4034C19.3013 12.3261 19.3803 12.1801 19.3803 12.0255V7.84246C19.3803 7.68785 19.2925 7.54183 19.1609 7.46453L15.4648 5.37731Z" fill="white"/>
</mask>
<g mask="url(#mask1)">
<path d="M15.4648 5.37731C15.3243 5.30001 15.1575 5.30001 15.0171 5.37731L11.321 7.46453C11.1806 7.54183 11.1016 7.68785 11.1016 7.84246V12.0255C11.1016 12.1801 11.1894 12.3261 11.321 12.4034L15.0171 14.4906C15.1575 14.5679 15.3243 14.5679 15.4648 14.4906L19.1609 12.4034C19.3013 12.3261 19.3803 12.1801 19.3803 12.0255V7.84246C19.3803 7.68785 19.2925 7.54183 19.1609 7.46453L15.4648 5.37731Z" fill="url(#paint0_linear)"/>
<path d="M19.1687 7.46512L15.4551 5.37791C15.42 5.36073 15.3761 5.34355 15.341 5.33496L11.1797 12.3095C11.2148 12.3525 11.2587 12.3868 11.3026 12.4126L15.0162 14.4998C15.1215 14.5599 15.2444 14.5771 15.3586 14.5428L19.2653 7.55101C19.239 7.51666 19.2039 7.49089 19.1687 7.46512Z" fill="url(#paint1_linear)"/>
<path fill-rule="evenodd" clip-rule="evenodd" d="M19.1777 12.4038C19.283 12.3437 19.3621 12.2406 19.3972 12.1289L15.3236 5.32618C15.2183 5.309 15.1041 5.31759 15.0076 5.37771L11.3203 7.45634L15.2973 14.5512C15.35 14.5426 15.4114 14.5254 15.4641 14.4996L19.1777 12.4038Z" fill="url(#paint2_linear)"/>
<path fill-rule="evenodd" clip-rule="evenodd" d="M19.1763 12.4036L15.4715 14.4908C15.4188 14.5165 15.3661 14.5337 15.3047 14.5423L15.3749 14.6712L19.4836 12.3434V12.2919L19.3782 12.1201C19.3607 12.2404 19.2817 12.3434 19.1763 12.4036Z" fill="url(#paint3_linear)"/>
<path fill-rule="evenodd" clip-rule="evenodd" d="M19.1763 12.4036L15.4715 14.4908C15.4188 14.5165 15.3661 14.5337 15.3047 14.5423L15.3749 14.6712L19.4836 12.3434V12.2919L19.3782 12.1201C19.3607 12.2404 19.2817 12.3434 19.1763 12.4036Z" fill="url(#paint4_linear)"/>
</g>
</mask>
<g mask="url(#mask0)">
<rect x="0.855469" width="38.9576" height="23.3359" fill="#7F7F7F"/>
</g>
<defs>
<linearGradient id="paint0_linear" x1="16.7467" y1="6.93324" x2="12.8202" y2="13.239" gradientUnits="userSpaceOnUse">
<stop stop-color="#41873F"/>
<stop offset="0.3288" stop-color="#418B3D"/>
<stop offset="0.6352" stop-color="#419637"/>
<stop offset="0.9319" stop-color="#3FA92D"/>
<stop offset="1" stop-color="#3FAE2A"/>
</linearGradient>
<linearGradient id="paint1_linear" x1="14.6789" y1="10.4244" x2="24.7226" y2="4.84713" gradientUnits="userSpaceOnUse">
<stop offset="0.1376" stop-color="#41873F"/>
<stop offset="0.4032" stop-color="#54A044"/>
<stop offset="0.7136" stop-color="#66B848"/>
<stop offset="0.9081" stop-color="#6CC04A"/>
</linearGradient>
<linearGradient id="paint2_linear" x1="10.9658" y1="9.9345" x2="19.5183" y2="9.9345" gradientUnits="userSpaceOnUse">
<stop offset="0.0919165" stop-color="#6CC04A"/>
<stop offset="0.2864" stop-color="#66B848"/>
<stop offset="0.5968" stop-color="#54A044"/>
<stop offset="0.8624" stop-color="#41873F"/>
</linearGradient>
<linearGradient id="paint3_linear" x1="10.9645" y1="13.4027" x2="19.5169" y2="13.4027" gradientUnits="userSpaceOnUse">
<stop offset="0.0919165" stop-color="#6CC04A"/>
<stop offset="0.2864" stop-color="#66B848"/>
<stop offset="0.5968" stop-color="#54A044"/>
<stop offset="0.8624" stop-color="#41873F"/>
</linearGradient>
<linearGradient id="paint4_linear" x1="20.7629" y1="6.73565" x2="18.6858" y2="17.8602" gradientUnits="userSpaceOnUse">
<stop stop-color="#41873F"/>
<stop offset="0.3288" stop-color="#418B3D"/>
<stop offset="0.6352" stop-color="#419637"/>
<stop offset="0.9319" stop-color="#3FA92D"/>
<stop offset="1" stop-color="#3FAE2A"/>
</linearGradient>
</defs>
</svg>
