<svg width="27" height="24" viewBox="0 0 27 24" fill="none" xmlns="http://www.w3.org/2000/svg">
<g clip-path="url(#clip0)">
<path d="M0.078125 11.6421C0.078125 13.5916 2.02384 15.4115 5.09143 16.4374C4.47886 19.4545 4.98165 21.8864 6.661 22.834C8.38721 23.8079 10.9588 23.1337 13.3996 21.0463C15.7789 23.0495 18.1835 23.8378 19.8613 22.8875C21.5858 21.9108 22.1104 19.314 21.4809 16.2026C24.6759 15.1691 26.4632 13.6173 26.4632 11.6421C26.4632 9.73782 24.5138 8.09034 21.4876 7.07109C22.1653 3.83113 21.5911 1.4583 19.8422 0.471576C18.1561 -0.479684 15.7236 0.349436 13.3093 2.40506C10.7977 0.223178 8.38919 -0.442977 6.64201 0.546619C4.95755 1.50058 4.47688 3.97662 5.09143 7.04967C2.12742 8.06075 0.078125 9.74543 0.078125 11.6421Z" fill="#1F2632"/>
<path d="M20.8481 8.0838C20.605 8.00194 20.3531 7.92449 20.0938 7.85124C20.1364 7.68103 20.1755 7.51303 20.2103 7.34788C20.7813 4.63611 20.408 2.45149 19.1331 1.73223C17.9107 1.04254 15.9115 1.76165 13.8925 3.48078C13.6983 3.64609 13.5036 3.82111 13.309 4.00454C13.1793 3.88318 13.0499 3.7659 12.9207 3.65372C10.8047 1.81551 8.68372 1.04087 7.41014 1.76222C6.18889 2.4539 5.82723 4.50765 6.34121 7.07761C6.39085 7.32584 6.44886 7.57934 6.51447 7.83708C6.21429 7.92045 5.9245 8.00933 5.64721 8.10388C3.1664 8.9501 1.58203 10.2763 1.58203 11.652C1.58203 13.0728 3.28285 14.4978 5.86681 15.3619C6.07073 15.4301 6.28232 15.4946 6.50037 15.5558C6.42959 15.8346 6.36803 16.1077 6.31635 16.3742C5.82627 18.8995 6.20899 20.9048 7.42699 21.5921C8.68506 22.3019 10.7965 21.5723 12.8524 19.814C13.0149 19.675 13.178 19.5276 13.3414 19.3731C13.5531 19.5726 13.7646 19.7614 13.9749 19.9385C15.9663 21.6152 17.9332 22.2922 19.1501 21.603C20.4069 20.8911 20.8153 18.737 20.285 16.1162C20.2445 15.9161 20.1974 15.7116 20.1445 15.5035C20.2928 15.4606 20.4383 15.4163 20.5803 15.3703C23.2665 14.4995 25.0143 13.0918 25.0143 11.652C25.0143 10.2714 23.3789 8.93618 20.8481 8.0838Z" fill="#7F7F7F"/>
<path d="M20.2645 14.4401C20.1363 14.4816 20.0049 14.5217 19.8709 14.5606C19.5743 13.642 19.1741 12.6653 18.6843 11.6562C19.1517 10.6711 19.5365 9.70687 19.8247 8.79429C20.0644 8.86216 20.2971 8.93373 20.5213 9.00927C22.6896 9.73959 24.0123 10.8194 24.0123 11.6514C24.0123 12.5377 22.5839 13.6882 20.2645 14.4401ZM19.3021 16.3059C19.5365 17.4647 19.57 18.5125 19.4147 19.3316C19.2752 20.0676 18.9945 20.5583 18.6475 20.7548C17.909 21.173 16.3298 20.6294 14.6267 19.1955C14.4315 19.0312 14.2348 18.8557 14.0375 18.6699C14.6978 17.9634 15.3577 17.1421 16.0017 16.2299C17.1345 16.1316 18.2047 15.9708 19.1752 15.7513C19.223 15.9399 19.2655 16.125 19.3021 16.3059ZM9.56965 20.6826C8.84816 20.9319 8.27354 20.939 7.92618 20.743C7.18706 20.3259 6.87978 18.7159 7.29892 16.5563C7.34693 16.3089 7.40407 16.0549 7.46993 15.7952C8.42982 16.0028 9.49219 16.1523 10.6277 16.2423C11.2761 17.1349 11.955 17.9553 12.6392 18.6737C12.4897 18.8149 12.3408 18.9493 12.1927 19.076C11.2836 19.8535 10.3725 20.4051 9.56965 20.6826ZM6.18958 14.4346C5.047 14.0526 4.10341 13.556 3.45663 13.0141C2.87546 12.5271 2.58203 12.0437 2.58203 11.6514C2.58203 10.8166 3.85412 9.75184 5.97574 9.02812C6.23317 8.9403 6.50265 8.85755 6.78231 8.77981C7.07552 9.71299 7.46017 10.6887 7.92435 11.6752C7.45416 12.6765 7.06405 13.6677 6.76796 14.6118C6.56859 14.5558 6.37544 14.4967 6.18958 14.4346ZM7.32261 6.88896C6.88224 4.68708 7.17471 3.02606 7.91067 2.60925C8.69459 2.16523 10.4281 2.79831 12.2551 4.38551C12.3719 4.48696 12.4891 4.59314 12.6067 4.70299C11.9259 5.41822 11.2532 6.23249 10.6105 7.11981C9.5085 7.21974 8.45359 7.38028 7.48369 7.59525C7.42271 7.35527 7.3687 7.11948 7.32261 6.88896ZM17.4302 9.33083C17.1984 8.939 16.9603 8.55643 16.7177 8.18431C17.4653 8.27678 18.1816 8.39952 18.8543 8.54974C18.6524 9.18298 18.4006 9.84508 18.1043 10.5238C17.8918 10.129 17.667 9.73094 17.4302 9.33083ZM13.3084 5.40292C13.7701 5.89232 14.2325 6.43873 14.6873 7.03158C14.229 7.0104 13.765 6.99938 13.2972 6.99938C12.8338 6.99938 12.3733 7.01016 11.9178 7.03097C12.373 6.44363 12.8394 5.89795 13.3084 5.40292ZM9.16011 9.3376C8.92849 9.73054 8.70785 10.1264 8.49864 10.5231C8.20714 9.84671 7.95776 9.1816 7.75405 8.53937C8.4226 8.39299 9.13554 8.27331 9.87842 8.18259C9.63234 8.55814 9.39234 8.94353 9.16011 9.33752V9.3376ZM9.89982 15.1901C9.13229 15.1063 8.40863 14.9928 7.74024 14.8505C7.9472 14.1968 8.20209 13.5175 8.49977 12.8265C8.70952 13.2229 8.93104 13.6189 9.16407 14.0127H9.16411C9.40148 14.4139 9.64739 14.8069 9.89982 15.1901ZM13.3361 17.969C12.8616 17.4681 12.3884 16.9141 11.9262 16.3182C12.3749 16.3354 12.8323 16.3443 13.2972 16.3443C13.7748 16.3443 14.247 16.3337 14.7117 16.3135C14.2554 16.9201 13.7947 17.475 13.3361 17.969ZM18.1139 12.7913C18.4271 13.4897 18.6911 14.1655 18.9007 14.808C18.2213 14.9597 17.4878 15.0818 16.7149 15.1726C16.9582 14.7954 17.1983 14.4063 17.4342 14.006C17.6729 13.601 17.8996 13.1954 18.1139 12.7913ZM16.5672 13.5167C16.2009 14.1381 15.8248 14.7313 15.443 15.2912C14.7477 15.3398 14.0294 15.3649 13.2972 15.3649C12.568 15.3649 11.8587 15.3427 11.1757 15.2993C10.7785 14.7321 10.3943 14.1372 10.0303 13.5221H10.0304C9.66741 12.9086 9.33332 12.2901 9.0306 11.6749C9.33324 11.0584 9.66646 10.4391 10.0274 9.82676L10.0273 9.82688C10.3891 9.21294 10.77 8.6209 11.1635 8.05719C11.8604 8.00565 12.575 7.97876 13.2972 7.97876H13.2972C14.0226 7.97876 14.7382 8.00586 15.4348 8.05784C15.8223 8.61743 16.2006 9.20755 16.5639 9.82158C16.9313 10.4425 17.2688 11.0577 17.574 11.661C17.2697 12.2747 16.9329 12.8961 16.5672 13.5167ZM18.6321 2.58012C19.4168 3.02284 19.7219 4.80832 19.2289 7.14964C19.1975 7.29903 19.1621 7.4512 19.1236 7.60541C18.1515 7.38595 17.0958 7.22264 15.9906 7.12119C15.3467 6.22413 14.6795 5.40859 14.0098 4.70255C14.1898 4.53307 14.3696 4.37148 14.5487 4.21898C16.2786 2.74604 17.8955 2.16449 18.6321 2.58012Z" fill="#1F2632"/>
<path d="M13.2955 9.60449C14.4511 9.60449 15.388 10.521 15.388 11.6517C15.388 12.7823 14.4511 13.6988 13.2955 13.6988C12.14 13.6988 11.2031 12.7823 11.2031 11.6517C11.2031 10.521 12.14 9.60449 13.2955 9.60449Z" fill="#7F7F7F"/>
</g>
<defs>
<clipPath id="clip0">
<rect width="26.5479" height="23.3359" fill="white"/>
</clipPath>
</defs>
</svg>
