<svg width="26" height="24" viewBox="0 0 26 24" fill="none" xmlns="http://www.w3.org/2000/svg">
<mask id="mask0" mask-type="alpha" maskUnits="userSpaceOnUse" x="0" y="0" width="26" height="24">
<path d="M17.4957 16.233C18.4192 16.1396 19.1198 15.3606 19.0879 14.4259C19.0561 13.4912 18.26 12.7434 17.3046 12.7434H17.2409C16.2537 12.7746 15.4895 13.5847 15.5213 14.5505C15.5531 15.0179 15.7442 15.4229 16.0308 15.7034C14.9481 17.7909 13.2922 19.3176 10.8083 20.5951C9.12047 21.4675 7.369 21.7791 5.61753 21.561C4.18451 21.374 3.06994 20.7509 2.36935 19.7227C1.35031 18.196 1.25478 16.5446 2.11459 14.8933C2.71965 13.7093 3.67499 12.8369 4.28005 12.4007C4.15267 11.9956 3.9616 11.3102 3.86606 10.8116C-0.751449 14.0832 -0.273776 18.5075 1.1274 20.5951C2.17828 22.153 4.31189 23.1188 6.66841 23.1188C7.30531 23.1188 7.94221 23.0565 8.57911 22.9007C12.6553 22.1218 15.7442 19.7538 17.4957 16.233ZM23.1004 12.3695C20.6802 9.5965 17.1135 8.06979 13.0374 8.06979H12.5279C12.2413 7.50895 11.6362 7.13506 10.9675 7.13506H10.9038C9.91659 7.16622 9.15232 7.97631 9.18416 8.94219C9.21601 9.87692 10.0121 10.6247 10.9675 10.6247H11.0312C11.7318 10.5935 12.3368 10.1573 12.5916 9.56534H13.1648C15.585 9.56534 17.8778 10.2508 19.9477 11.5906C21.54 12.6188 22.6864 13.9585 23.3233 15.5787C23.8647 16.8874 23.8328 18.1648 23.2596 19.2553C22.368 20.9067 20.8712 21.8102 18.8969 21.8102C17.6231 21.8102 16.413 21.4363 15.7761 21.1559C15.4258 21.4675 14.7889 21.966 14.343 22.2776C15.7124 22.9007 17.1135 23.2435 18.451 23.2435C21.5081 23.2435 23.7691 21.5921 24.6289 19.9408C25.5524 18.1336 25.4888 15.0179 23.1004 12.3695ZM6.92317 16.7627C6.95502 17.6974 7.75114 18.4452 8.70649 18.4452H8.77018C9.75737 18.4141 10.5216 17.604 10.4898 16.6381C10.458 15.7034 9.66183 14.9556 8.70649 14.9556H8.6428C8.57911 14.9556 8.48357 14.9556 8.41988 14.9867C7.11424 12.868 6.57288 10.5624 6.76395 8.06979C6.89133 6.20034 7.52823 4.58015 8.6428 3.24038C9.5663 2.08755 11.3496 1.52672 12.5597 1.49556C15.9353 1.43324 17.3683 5.54603 17.4638 7.19738C17.8778 7.29085 18.5784 7.50895 19.0561 7.66474C18.6739 2.61723 15.4895 0 12.4323 0C9.5663 0 6.92317 2.02524 5.87229 5.01635C4.40742 9.00451 5.36277 12.8369 7.14609 15.8592C6.98686 16.0773 6.89133 16.42 6.92317 16.7627Z" fill="#764ABC"/>
</mask>
<g mask="url(#mask0)">
<rect x="0.109375" width="25.0442" height="23.3359" fill="#7F7F7F"/>
</g>
</svg>
