<svg width="24" height="25" viewBox="0 0 24 25" fill="none" xmlns="http://www.w3.org/2000/svg">
<g clip-path="url(#clip0)">
<path d="M0.046875 12.4502V24.1182H11.9727H23.8985V12.4502V0.782288H11.9727H0.046875V12.4502Z" fill="#7F7F7F"/>
<path d="M5.32147 12.5271L5.3139 13.4827L6.86614 13.4827H8.41839V17.798V22.1133H9.51632H10.6143V17.798V13.4827H12.1665H13.7188V12.5456C13.7188 12.027 13.7074 11.5936 13.6922 11.5825C13.6809 11.5677 11.7917 11.5603 9.50118 11.564L5.33283 11.5751L5.32147 12.5271Z" fill="#1F2632"/>
<path d="M19.2926 11.5483C19.8983 11.6965 20.3602 11.9595 20.7843 12.3892C21.0038 12.6188 21.3294 13.0374 21.3559 13.1374C21.3635 13.167 20.3262 13.8486 19.6977 14.2301C19.675 14.2449 19.5841 14.1486 19.4819 14.0005C19.1752 13.5634 18.8534 13.3745 18.3612 13.3411C17.6381 13.293 17.1724 13.6634 17.1762 14.282C17.1762 14.4635 17.2027 14.5709 17.2785 14.7191C17.4375 15.0413 17.7328 15.2339 18.6603 15.6266C20.3678 16.3452 21.0985 16.8193 21.5528 17.4934C22.0601 18.2454 22.1737 19.4455 21.8292 20.3382C21.4506 21.3087 20.5117 21.968 19.1904 22.1865C18.7815 22.2569 17.8123 22.2458 17.3731 22.168C16.4152 22.0013 15.5066 21.5383 14.9463 20.9309C14.7267 20.6938 14.2989 20.0752 14.3254 20.0308C14.3368 20.0159 14.4352 19.9567 14.545 19.8937C14.651 19.8344 15.0523 19.6085 15.4309 19.3936L16.1162 19.0047L16.26 19.2121C16.4607 19.5122 16.8999 19.9233 17.1649 20.0604C17.9259 20.453 18.9708 20.3975 19.4857 19.9456C19.7053 19.7492 19.7961 19.5455 19.7961 19.2455C19.7961 18.9751 19.762 18.8566 19.6182 18.6528C19.4327 18.3935 19.0541 18.175 17.9789 17.7194C16.7484 17.2008 16.2184 16.8786 15.7338 16.3674C15.4536 16.0711 15.1886 15.5969 15.0788 15.2006C14.9879 14.8709 14.9652 14.0449 15.0372 13.7115C15.2908 12.5485 16.1881 11.7373 17.4829 11.4965C17.9031 11.4187 18.8799 11.4483 19.2926 11.5483Z" fill="#1F2632"/>
</g>
<defs>
<clipPath id="clip0">
<rect width="23.8516" height="23.3359" fill="white" transform="translate(0.046875 0.782227)"/>
</clipPath>
</defs>
</svg>
