<svg width="56" height="93" viewBox="0 0 56 93" fill="none" xmlns="http://www.w3.org/2000/svg">
<path d="M10.0173 88.2631V87.5701H5.73288V83.4121H5.01881V87.5701H0.734375V88.2631H5.01881V92.4211H5.73288V88.2631H10.0173Z" fill="#8BD2BD"/>
<path d="M32.865 88.2631V87.5701H28.5805V83.4121H27.8665V87.5701H23.582V88.2631H27.8665V92.4211H28.5805V88.2631H32.865Z" fill="#8BD2BD"/>
<path d="M54.9978 88.2631V87.5701H50.7134V83.4121H49.9993V87.5701H45.7148V88.2631H49.9993V92.4211H50.7134V88.2631H54.9978Z" fill="#8BD2BD"/>
<path d="M10.0173 88.6106V87.2246H6.08992V83.4131H4.66177V87.2246H0.734375V88.6106H4.66177V92.4221H6.08992V88.6106H10.0173Z" fill="white"/>
<path d="M32.865 88.6096V87.2236H28.9376V83.4121H27.5094V87.2236H23.582V88.6096H27.5094V92.4211H28.9376V88.6096H32.865Z" fill="white"/>
<path d="M54.9978 88.6096V87.2236H51.0704V83.4121H49.6422V87.2236H45.7148V88.6096H49.6422V92.4211H51.0704V88.6096H54.9978Z" fill="white"/>
<path d="M10.0173 67.476V66.783H5.73288V62.625H5.01881V66.783H0.734375V67.476H5.01881V71.634H5.73288V67.476H10.0173Z" fill="#8BD2BD"/>
<path d="M32.865 67.476V66.783H28.5805V62.625H27.8665V66.783H23.582V67.476H27.8665V71.634H28.5805V67.476H32.865Z" fill="#8BD2BD"/>
<path d="M54.9978 67.476V66.783H50.7134V62.625H49.9993V66.783H45.7148V67.476H49.9993V71.634H50.7134V67.476H54.9978Z" fill="#8BD2BD"/>
<path d="M10.0173 67.8215V66.4355H6.08992V62.624H4.66177V66.4355H0.734375V67.8215H4.66177V71.633H6.08992V67.8215H10.0173Z" fill="white"/>
<path d="M32.865 67.8215V66.4355H28.9376V62.624H27.5094V66.4355H23.582V67.8215H27.5094V71.633H28.9376V67.8215H32.865Z" fill="white"/>
<path d="M54.9978 67.8215V66.4355H51.0704V62.624H49.6422V66.4355H45.7148V67.8215H49.6422V71.633H51.0704V67.8215H54.9978Z" fill="white"/>
<path d="M32.8689 46.6899V45.9969H28.5844V41.8389H27.8704V45.9969H23.5859V46.6899H27.8704V50.8478H28.5844V46.6899H32.8689Z" fill="#8BD2BD"/>
<path d="M55.0017 46.6889V45.9959H50.7173V41.8379H50.0032V45.9959H45.7188V46.6889H50.0032V50.8469H50.7173V46.6889H55.0017Z" fill="#8BD2BD"/>
<path d="M32.8689 47.0354V45.6494H28.9415V41.8379H27.5133V45.6494H23.5859V47.0354H27.5133V50.8469H28.9415V47.0354H32.8689Z" fill="white"/>
<path d="M55.0017 47.0354V45.6494H51.0743V41.8379H49.6461V45.6494H45.7188V47.0354H49.6461V50.8469H51.0743V47.0354H55.0017Z" fill="white"/>
<path d="M32.8689 25.9008V25.2078H28.5844V21.0498H27.8704V25.2078H23.5859V25.9008H27.8704V30.0588H28.5844V25.9008H32.8689Z" fill="#8BD2BD"/>
<path d="M55.0017 25.9008V25.2078H50.7173V21.0498H50.0032V25.2078H45.7188V25.9008H50.0032V30.0588H50.7173V25.9008H55.0017Z" fill="#8BD2BD"/>
<path d="M32.8689 26.2473V24.8613H28.9415V21.0498H27.5133V24.8613H23.5859V26.2473H27.5133V30.0588H28.9415V26.2473H32.8689Z" fill="white"/>
<path d="M55.0017 26.2473V24.8613H51.0743V21.0498H49.6461V24.8613H45.7188V26.2473H49.6461V30.0588H51.0743V26.2473H55.0017Z" fill="white"/>
<path d="M32.865 5.11368V4.42068H28.5805V0.262695H27.8665V4.42068H23.582V5.11368H27.8665V9.27166H28.5805V5.11368H32.865Z" fill="#8BD2BD"/>
<path d="M54.9978 5.11368V4.42068H50.7134V0.262695H49.9993V4.42068H45.7148V5.11368H49.9993V9.27166H50.7134V5.11368H54.9978Z" fill="#8BD2BD"/>
<path d="M32.865 5.46018V4.07418H28.9376V0.262695H27.5094V4.07418H23.582V5.46018H27.5094V9.27166H28.9376V5.46018H32.865Z" fill="white"/>
<path d="M54.9978 5.46018V4.07418H51.0704V0.262695H49.6422V4.07418H45.7148V5.46018H49.6422V9.27166H51.0704V5.46018H54.9978Z" fill="white"/>
</svg>
